<svg width="1080" height="1920" viewBox="0 0 1080 1920" fill="none" xmlns="http://www.w3.org/2000/svg">
<path d="M1080 0H0V1920H1080V0Z" fill="white"/>
<path d="M1080 0H0V1920H1080V0Z" fill="#7543FF"/>
<path d="M1079.5 0.5H0.5V1919.5H1079.5V0.5Z" stroke="#707070"/>
<path d="M982.535 253.824H97.537C78.4627 253.824 63 269.287 63 288.361V559.285C63 578.359 78.4627 593.822 97.537 593.822H982.535C1001.61 593.822 1017.07 578.359 1017.07 559.285V288.361C1017.07 269.287 1001.61 253.824 982.535 253.824Z" fill="#EAFFF1"/>
<ellipse cx="540" cy="1491.5" rx="189" ry="33.5" fill="#37217C"/>
<path d="M617.378 952.013L547.686 1009.98C545.035 1006.8 543.038 1003.12 541.808 999.163C540.579 995.205 540.141 991.043 540.52 986.916C540.899 982.788 542.087 978.776 544.016 975.107C545.945 971.439 548.579 968.187 551.765 965.536C551.925 965.403 552.088 965.272 552.253 965.136C552.359 965.052 552.466 964.967 552.577 964.883C552.669 964.81 552.763 964.737 552.859 964.664L553.144 964.453C553.173 964.429 553.205 964.406 553.235 964.385C553.464 964.214 553.695 964.047 553.935 963.885C554.074 963.785 554.213 963.69 554.355 963.598C554.575 963.447 554.798 963.298 555.02 963.159C575.823 949.712 617.378 952.013 617.378 952.013Z" fill="#4FEEA2"/>
<path d="M617.378 952.016L547.685 1009.99C553.037 1016.42 560.727 1020.47 569.063 1021.23C577.398 1022 585.697 1019.42 592.133 1014.07C592.293 1013.94 592.452 1013.8 592.613 1013.66C592.713 1013.57 592.813 1013.48 592.921 1013.39C593.009 1013.31 593.099 1013.23 593.187 1013.15L593.448 1012.91C593.477 1012.89 593.504 1012.86 593.531 1012.83C593.739 1012.64 593.946 1012.44 594.15 1012.24C594.272 1012.12 594.391 1012 594.508 1011.88C594.696 1011.69 594.881 1011.5 595.062 1011.3C612.075 993.295 617.378 952.016 617.378 952.016Z" fill="#03947A"/>
<path d="M555.447 806.906H541.609V1016.36H555.447V806.906Z" fill="#03947A"/>
<path d="M542.531 806.906H528.693V1016.36H542.531V806.906Z" fill="#33D47F"/>
<path d="M446.388 933.718L537.161 974.151C540.894 965.769 541.145 956.248 537.859 947.681C534.573 939.114 528.019 932.203 519.638 928.469C519.428 928.375 519.218 928.285 519.004 928.194C518.867 928.137 518.729 928.079 518.588 928.024C518.469 927.974 518.347 927.924 518.224 927.876L517.86 927.737C517.822 927.72 517.783 927.707 517.744 927.693C517.451 927.581 517.158 927.474 516.863 927.372C516.686 927.309 516.511 927.25 516.335 927.194C516.057 927.102 515.777 927.014 515.501 926.928C489.546 918.929 446.388 933.718 446.388 933.718Z" fill="#4FEEA2"/>
<path d="M446.388 933.719L537.161 974.152C533.427 982.533 526.517 989.089 517.951 992.376C509.384 995.664 499.863 995.414 491.481 991.682C491.271 991.588 491.065 991.492 490.853 991.394C490.719 991.331 490.583 991.267 490.447 991.199C490.331 991.143 490.212 991.086 490.094 991.027L489.748 990.849C489.71 990.832 489.674 990.813 489.636 990.792C489.358 990.65 489.082 990.503 488.809 990.351C488.643 990.262 488.481 990.171 488.323 990.078C488.068 989.935 487.816 989.784 487.567 989.636C464.262 975.694 446.388 933.719 446.388 933.719Z" fill="#03947A"/>
<path d="M539.879 972.962L539.917 931.162C539.945 901.346 516.739 877.152 488.086 877.125" stroke="#4FEEA2" stroke-width="16.343" stroke-miterlimit="10"/>
<path d="M541.267 970.704L527.429 970.692L527.468 928.892C527.465 918.904 523.5 909.325 516.444 902.255C509.388 895.186 499.816 891.204 489.828 891.182L489.84 877.344C503.498 877.37 516.588 882.813 526.237 892.48C535.886 902.147 541.305 915.247 541.306 928.905L541.267 970.704Z" fill="#33D47F"/>
<path d="M545.966 1016.35L527.176 1016.33L527.215 949.324C527.25 932.52 533.949 916.415 545.842 904.544C557.736 892.673 573.852 886.004 590.657 886L590.639 904.79C578.816 904.793 567.477 909.485 559.11 917.838C550.742 926.19 546.029 937.52 546.005 949.343L545.966 1016.35Z" fill="#4FEEA2"/>
<path d="M552.882 1016.36L539.044 1016.34L539.083 949.335C539.109 935.686 544.546 922.604 554.201 912.957C563.857 903.31 576.944 897.885 590.593 897.871H590.643L590.63 911.708H590.592C580.611 911.721 571.041 915.69 563.98 922.744C556.92 929.799 552.943 939.365 552.921 949.346L552.882 1016.36Z" fill="#03947A"/>
<path d="M679.148 790.883L571.882 901.393C561.677 891.489 555.824 877.937 555.611 863.717C555.399 849.498 560.843 835.777 570.747 825.572C570.994 825.317 571.247 825.066 571.5 824.811C571.665 824.65 571.829 824.488 572 824.325C572.142 824.186 572.289 824.044 572.438 823.904C572.587 823.764 572.731 823.634 572.88 823.495C572.925 823.448 572.973 823.406 573.022 823.364C573.378 823.036 573.739 822.712 574.106 822.395C574.323 822.2 574.542 822.015 574.763 821.834C575.109 821.54 575.463 821.253 575.81 820.971C608.534 794.496 679.148 790.883 679.148 790.883Z" fill="#FFF95B"/>
<path d="M601.957 870.407L571.881 901.393C561.676 891.489 555.824 877.937 555.611 863.717C555.399 849.498 560.844 835.777 570.748 825.572C570.996 825.317 571.248 825.072 571.5 824.811C571.663 824.65 571.83 824.485 572 824.327C572.143 824.187 572.29 824.043 572.436 823.906C572.582 823.769 572.728 823.633 572.883 823.495C572.927 823.45 572.975 823.407 573.022 823.365C573.377 823.032 573.738 822.709 574.107 822.395C574.325 822.195 574.543 822.016 574.762 821.834C575.109 821.534 575.462 821.253 575.809 820.972C582.823 815.295 591.58 810.672 601.009 806.906C609.555 815.201 614.457 826.552 614.634 838.46C614.812 850.369 610.252 861.861 601.957 870.407Z" fill="#4FEEA2"/>
<path d="M679.148 790.883L571.883 901.393C576.935 906.297 582.904 910.159 589.449 912.757C595.994 915.354 602.986 916.638 610.026 916.533C617.067 916.428 624.018 914.938 630.483 912.147C636.948 909.356 642.799 905.319 647.704 900.267C647.951 900.014 648.194 899.755 648.442 899.493C648.599 899.324 648.756 899.153 648.913 898.977C649.048 898.831 649.186 898.677 649.32 898.526L649.72 898.073C649.765 898.026 649.806 897.973 649.847 897.927C650.165 897.56 650.479 897.191 650.784 896.815C650.971 896.592 651.151 896.368 651.326 896.142C651.61 895.787 651.884 895.427 652.157 895.069C677.641 861.575 679.148 790.883 679.148 790.883Z" fill="#33D47F"/>
<path d="M647.705 900.273C637.887 910.385 624.483 916.226 610.393 916.531C596.302 916.836 582.657 911.581 572.412 901.903C572.342 901.836 572.287 901.757 572.248 901.669C572.209 901.581 572.189 901.486 572.187 901.39C572.185 901.294 572.202 901.198 572.237 901.109C572.272 901.019 572.325 900.938 572.392 900.869L586.87 885.952C593.776 878.837 603.225 874.757 613.139 874.61C623.053 874.462 632.62 878.258 639.735 885.164L650.735 895.844C650.864 895.969 650.94 896.139 650.948 896.319C650.956 896.499 650.896 896.675 650.78 896.813C650.474 897.19 650.158 897.558 649.843 897.925C649.802 897.975 649.761 898.025 649.718 898.068C649.582 898.222 649.452 898.376 649.318 898.527C649.184 898.678 649.046 898.827 648.911 898.975C648.755 899.15 648.596 899.322 648.442 899.493C648.195 899.763 647.951 900.016 647.705 900.273Z" fill="#03947A"/>
<path d="M539.807 662.562L542.108 816.555C527.888 816.767 514.167 811.322 503.962 801.418C493.757 791.513 487.904 777.961 487.692 763.741C487.686 763.386 487.686 763.032 487.686 762.671C487.686 762.44 487.686 762.209 487.698 761.971C487.698 761.771 487.697 761.571 487.709 761.363C487.721 761.155 487.725 760.963 487.733 760.763C487.733 760.698 487.733 760.635 487.742 760.57C487.762 760.086 487.786 759.602 487.822 759.118C487.838 758.827 487.861 758.542 487.89 758.257C487.926 757.806 487.973 757.356 488.02 756.905C492.431 715.048 539.807 662.562 539.807 662.562Z" fill="#4FEEA2"/>
<path d="M541.457 773.377L542.1 816.555C527.881 816.767 514.16 811.322 503.956 801.418C493.751 791.513 487.899 777.961 487.687 763.743C487.681 763.387 487.681 763.035 487.681 762.673C487.681 762.444 487.681 762.208 487.695 761.973C487.695 761.773 487.695 761.567 487.706 761.368C487.717 761.169 487.72 760.968 487.731 760.761C487.731 760.698 487.731 760.634 487.737 760.569C487.755 760.086 487.781 759.602 487.818 759.117C487.833 758.824 487.859 758.54 487.883 758.257C487.921 757.801 487.967 757.352 488.014 756.906C488.96 747.931 491.882 738.469 495.887 729.142C501.783 729.054 507.64 730.129 513.121 732.304C518.602 734.48 523.602 737.714 527.833 741.821C532.065 745.929 535.446 750.83 537.783 756.244C540.121 761.658 541.369 767.48 541.457 773.377Z" fill="#33D47F"/>
<path d="M539.808 662.562L542.108 816.555C556.327 816.343 569.88 810.491 579.785 800.287C589.69 790.083 595.136 776.362 594.926 762.142C594.92 761.787 594.909 761.433 594.899 761.074C594.89 760.843 594.881 760.612 594.867 760.374C594.858 760.174 594.85 759.974 594.837 759.767C594.824 759.56 594.81 759.367 594.796 759.167C594.796 759.102 594.789 759.039 594.783 758.974C594.748 758.491 594.709 758.008 594.659 757.525C594.632 757.235 594.602 756.951 594.565 756.667C594.515 756.217 594.455 755.766 594.394 755.32C588.728 713.613 539.808 662.562 539.808 662.562Z" fill="#4FEEA2"/>
<path d="M594.923 762.143C595.131 776.236 589.783 789.844 580.035 800.023C570.287 810.203 556.923 816.135 542.835 816.536C542.738 816.539 542.643 816.522 542.553 816.487C542.463 816.452 542.382 816.4 542.312 816.333C542.243 816.266 542.187 816.187 542.149 816.099C542.111 816.01 542.09 815.915 542.088 815.819L541.78 795.033C541.632 785.119 545.429 775.552 552.335 768.438C559.241 761.323 568.69 757.243 578.604 757.095L593.936 756.867C594.116 756.864 594.29 756.93 594.423 757.051C594.557 757.172 594.639 757.34 594.653 757.519V757.525C594.704 758.008 594.741 758.492 594.778 758.975C594.778 759.038 594.789 759.102 594.79 759.165C594.804 759.37 594.819 759.565 594.833 759.77C594.847 759.975 594.854 760.17 594.863 760.375C594.877 760.609 594.884 760.843 594.898 761.075C594.906 761.437 594.917 761.789 594.923 762.143Z" fill="#03947A"/>
<path d="M402.348 813.709L518.514 886.209C521.829 880.898 524.065 874.986 525.096 868.81C526.126 862.635 525.93 856.317 524.518 850.218C523.107 844.118 520.508 838.356 516.869 833.261C513.231 828.166 508.625 823.838 503.314 820.523C503.047 820.356 502.777 820.193 502.503 820.028C502.325 819.922 502.149 819.818 501.966 819.716C501.814 819.625 501.657 819.533 501.498 819.446C501.339 819.359 501.187 819.275 501.029 819.186C500.981 819.156 500.929 819.13 500.878 819.104C500.501 818.896 500.12 818.692 499.736 818.497C499.507 818.376 499.28 818.263 499.049 818.153C498.689 817.973 498.323 817.801 497.961 817.632C464.07 801.761 402.348 813.709 402.348 813.709Z" fill="#FFF95B"/>
<path d="M485.944 865.876L518.516 886.202C525.21 875.476 527.37 862.53 524.519 850.212C521.669 837.894 514.042 827.213 503.316 820.518C503.047 820.351 502.78 820.189 502.504 820.023C502.329 819.917 502.15 819.812 501.967 819.712C501.813 819.621 501.656 819.528 501.501 819.442C501.346 819.356 501.19 819.268 501.027 819.182C500.98 819.152 500.927 819.126 500.879 819.099C500.503 818.891 500.122 818.69 499.737 818.494C499.506 818.37 499.278 818.26 499.052 818.148C498.688 817.967 498.325 817.796 497.964 817.627C490.698 814.227 482.152 812.101 473.212 810.863C467.605 819.847 465.797 830.69 468.185 841.007C470.572 851.324 476.96 860.269 485.944 865.876Z" fill="#4FEEA2"/>
<path d="M402.348 813.707L518.514 886.207C515.199 891.519 510.872 896.125 505.777 899.764C500.682 903.403 494.921 906.003 488.822 907.415C482.722 908.828 476.405 909.025 470.229 907.995C464.053 906.966 458.141 904.73 452.83 901.416C452.563 901.248 452.297 901.078 452.03 900.904C451.858 900.791 451.686 900.678 451.514 900.558C451.366 900.458 451.214 900.358 451.066 900.258L450.627 899.95C450.578 899.92 450.527 899.885 450.487 899.85C450.135 899.601 449.787 899.35 449.441 899.089C449.232 898.937 449.029 898.783 448.83 898.624C448.51 898.378 448.195 898.124 447.884 897.875C418.733 874.401 402.348 813.707 402.348 813.707Z" fill="#33D47F"/>
<path d="M452.829 901.414C463.461 908.048 476.277 910.229 488.504 907.486C500.731 904.742 511.387 897.295 518.165 886.755C518.212 886.683 518.244 886.602 518.259 886.518C518.274 886.434 518.272 886.347 518.254 886.263C518.235 886.179 518.2 886.1 518.15 886.03C518.101 885.96 518.038 885.901 517.965 885.855L502.286 876.069C498.583 873.758 494.461 872.198 490.155 871.48C485.849 870.762 481.444 870.899 477.191 871.883C472.938 872.868 468.921 874.68 465.368 877.217C461.816 879.754 458.798 882.966 456.486 886.669L449.268 898.235C449.184 898.371 449.154 898.534 449.185 898.691C449.216 898.847 449.305 898.987 449.435 899.08C449.779 899.341 450.135 899.59 450.481 899.841C450.528 899.874 450.573 899.909 450.62 899.941C450.771 900.041 450.914 900.151 451.062 900.252C451.21 900.353 451.362 900.452 451.509 900.552C451.681 900.67 451.856 900.784 452.025 900.899C452.298 901.076 452.56 901.246 452.829 901.414Z" fill="#03947A"/>
<path d="M549.431 692.262C549.431 692.262 586.97 738.982 579.195 766.462" stroke="white" stroke-width="6" stroke-linecap="round" stroke-linejoin="round"/>
<path d="M574.434 778.406C574.434 778.406 567.978 798.389 551.604 803.647" stroke="white" stroke-width="6" stroke-linecap="round" stroke-linejoin="round"/>
<path d="M647.421 805.215C647.421 805.215 588.321 815.152 575.857 840.846" stroke="white" stroke-width="6" stroke-linecap="round" stroke-linejoin="round"/>
<path d="M571.466 852.934C571.466 852.934 563 872.154 571.735 886.967" stroke="white" stroke-width="6" stroke-linecap="round" stroke-linejoin="round"/>
<path d="M427.562 819.649C427.562 819.649 483.081 809.365 508.008 839.675" stroke="white" stroke-width="6" stroke-linecap="round" stroke-linejoin="round"/>
<path d="M512.397 853.285C512.397 853.285 518.403 864.393 513.963 874.306" stroke="white" stroke-width="6" stroke-linecap="round" stroke-linejoin="round"/>
<path d="M623.487 1418.71C622.974 1418.71 622.461 1418.72 621.963 1418.77L605.348 1264.43C604.565 1257.15 601.118 1250.41 595.669 1245.52C590.22 1240.63 583.154 1237.92 575.83 1237.92H502.353C494.953 1237.92 487.821 1240.68 482.353 1245.67C476.885 1250.66 473.474 1257.5 472.79 1264.87L458.514 1419.37C457.941 1419.35 457.352 1419.35 456.764 1419.37C442.322 1419.88 431.804 1433.39 435.064 1448.39C439.138 1467.06 461.231 1465.56 462.242 1465.34L502.897 1466.65C505.708 1466.74 508.448 1465.76 510.565 1463.91C512.682 1462.06 514.019 1459.47 514.306 1456.67L515.876 1441.12C516.161 1439.87 516.362 1438.61 516.476 1437.34L519.811 1401.2H560.345L563.408 1429.69L563.423 1429.84L564.283 1437.78C564.449 1439.38 567.301 1458.02 567.301 1458.02C567.686 1460.81 569.113 1463.34 571.295 1465.12C573.476 1466.89 576.25 1467.78 579.057 1467.59L619.636 1464.84C620.662 1465.02 642.8 1465.73 646.196 1446.93C648.927 1431.82 637.944 1418.71 623.487 1418.71ZM498.807 1295.37L510.563 1276.11C510.563 1276.11 581.792 1279.51 582.652 1280.02C583.497 1280.53 588.884 1297.51 588.884 1297.51C536.76 1323.73 498.807 1295.37 498.807 1295.37Z" fill="#FDEE33"/>
<path d="M588.883 1297.51C536.759 1323.73 498.806 1295.37 498.806 1295.37L510.562 1276.11C510.562 1276.11 581.791 1279.51 582.651 1280.02C583.511 1280.53 588.883 1297.51 588.883 1297.51Z" fill="#FDEE33"/>
<path d="M460.489 1374.48C455.159 1374.47 449.933 1373.01 445.379 1370.24C440.824 1367.47 437.116 1363.51 434.657 1358.78C432.198 1354.05 431.083 1348.74 431.432 1343.42C431.781 1338.1 433.582 1332.98 436.638 1328.62L483.397 1261.82C485.585 1258.66 488.374 1255.97 491.604 1253.9C494.834 1251.83 498.441 1250.41 502.219 1249.74C505.997 1249.06 509.871 1249.14 513.619 1249.97C517.366 1250.8 520.914 1252.35 524.058 1254.55C527.202 1256.75 529.88 1259.55 531.939 1262.79C533.998 1266.03 535.398 1269.64 536.057 1273.43C536.716 1277.21 536.622 1281.08 535.781 1284.82C534.939 1288.57 533.366 1292.11 531.153 1295.24L484.393 1362.04C481.705 1365.89 478.128 1369.03 473.966 1371.19C469.804 1373.36 465.18 1374.49 460.489 1374.48Z" fill="#FDE25D"/>
<path d="M588.883 1297.51C536.759 1323.73 498.806 1295.37 498.806 1295.37L510.562 1276.11C510.562 1276.11 581.791 1279.51 582.651 1280.02C583.511 1280.53 588.883 1297.51 588.883 1297.51Z" fill="#FDE25D"/>
<path d="M616.29 1430.07C616.29 1430.07 631.59 1427.77 634.136 1444.94" stroke="white" stroke-width="6" stroke-linecap="round" stroke-linejoin="round"/>
<path d="M465.067 1430.07C465.067 1430.07 449.767 1427.77 447.221 1444.94" stroke="white" stroke-width="6" stroke-linecap="round" stroke-linejoin="round"/>
<path d="M448.887 1359.85C443.558 1359.84 438.332 1358.37 433.777 1355.61C429.223 1352.84 425.515 1348.87 423.056 1344.15C420.597 1339.42 419.481 1334.11 419.83 1328.79C420.179 1323.47 421.979 1318.35 425.035 1313.98L471.794 1247.18C473.982 1244.03 476.771 1241.34 480.001 1239.27C483.231 1237.2 486.839 1235.78 490.617 1235.11C494.394 1234.43 498.268 1234.51 502.016 1235.34C505.764 1236.16 509.311 1237.72 512.455 1239.92C515.599 1242.12 518.278 1244.92 520.337 1248.16C522.396 1251.4 523.795 1255.01 524.454 1258.79C525.114 1262.57 525.02 1266.45 524.178 1270.19C523.337 1273.94 521.764 1277.48 519.55 1280.61L472.791 1347.41C470.103 1351.26 466.526 1354.4 462.364 1356.56C458.202 1358.73 453.579 1359.85 448.887 1359.85Z" fill="#FFF95B"/>
<path d="M443.673 1274.78C443.673 1274.78 477.027 1301.29 536.088 1309.91L533.75 1292.35L489.879 1267.55L443.673 1274.78Z" fill="#FDE25D"/>
<path d="M412.873 1253.86C454.522 1274.08 501.111 1298.16 541.711 1298.16C579.234 1298.16 624.472 1274.35 665.88 1254.75C653.644 1243.3 637.512 1236.94 620.757 1236.95H457.027C440.726 1236.94 424.997 1242.96 412.873 1253.86Z" fill="#33D47F"/>
<path d="M449.017 1249.03C478.766 1263.47 512.044 1280.67 541.044 1280.67C567.844 1280.67 600.16 1263.66 629.736 1249.67C620.996 1241.49 609.473 1236.94 597.505 1236.95H480.555C468.911 1236.94 457.676 1241.24 449.017 1249.03Z" fill="#03947A"/>
<path d="M685.38 1124.76C685.38 1212.44 597.852 1247.79 540.748 1247.79C479.887 1247.79 396.114 1212.44 396.114 1124.76C396.114 1037.08 472.729 966 540.748 966C610.588 966 685.38 1037.08 685.38 1124.76Z" fill="#FFF95B"/>
<path d="M685.387 1124.76C685.387 1212.43 597.86 1247.79 540.756 1247.79C479.88 1247.79 396.11 1212.43 396.11 1124.76C396.114 1113.25 397.431 1101.79 400.034 1090.59C400.743 1177.42 484.06 1212.46 544.65 1212.46C594.525 1212.46 667.625 1185.5 685.312 1120.23C685.371 1121.74 685.387 1123.25 685.387 1124.76Z" fill="#FDE25D"/>
<path d="M412.312 1131.87C419.464 1196.59 484.66 1222.98 532.772 1222.98C580.591 1222.98 653.889 1193.37 653.889 1119.95C653.889 1051.28 599.106 994.774 544.165 987.75C483.159 995.028 419.359 1055.76 412.312 1131.87Z" fill="#FDE9CA"/>
<path d="M463.576 1132.83H405.124C398.428 1132.83 393 1138.26 393 1144.96V1157.3C393 1164 398.428 1169.43 405.124 1169.43H463.576C470.272 1169.43 475.7 1164 475.7 1157.3V1144.96C475.7 1138.26 470.272 1132.83 463.576 1132.83Z" fill="#FD9C8C"/>
<path d="M675.329 1132.83H616.781C610.085 1132.83 604.657 1138.26 604.657 1144.96V1157.3C604.657 1164 610.085 1169.43 616.781 1169.43H675.329C682.025 1169.43 687.453 1164 687.453 1157.3V1144.96C687.453 1138.26 682.025 1132.83 675.329 1132.83Z" fill="#FD9C8C"/>
<path d="M594.505 1128.56C606.158 1128.56 615.605 1119.11 615.605 1107.46C615.605 1095.8 606.158 1086.36 594.505 1086.36C582.852 1086.36 573.405 1095.8 573.405 1107.46C573.405 1119.11 582.852 1128.56 594.505 1128.56Z" fill="#1610BA"/>
<path d="M583.212 1107.46C583.212 1104.46 584.402 1101.59 586.52 1099.47C588.637 1097.35 591.509 1096.16 594.504 1096.16" stroke="white" stroke-width="6.438" stroke-miterlimit="10" stroke-linecap="round"/>
<path d="M486.991 1128.56C498.644 1128.56 508.091 1119.11 508.091 1107.46C508.091 1095.8 498.644 1086.36 486.991 1086.36C475.337 1086.36 465.891 1095.8 465.891 1107.46C465.891 1119.11 475.337 1128.56 486.991 1128.56Z" fill="#1610BA"/>
<path d="M475.699 1107.46C475.699 1104.46 476.889 1101.59 479.007 1099.47C481.124 1097.35 483.996 1096.16 486.991 1096.16" stroke="white" stroke-width="6.438" stroke-miterlimit="10" stroke-linecap="round"/>
<path d="M532.391 1139.28H549.104C549.964 1139.28 550.816 1139.11 551.611 1138.79C552.406 1138.46 553.129 1137.97 553.737 1137.37C554.346 1136.76 554.829 1136.03 555.158 1135.24C555.487 1134.44 555.657 1133.59 555.657 1132.73C555.657 1128.78 554.086 1124.99 551.29 1122.19C548.495 1119.39 544.703 1117.82 540.749 1117.82C536.795 1117.82 533.003 1119.39 530.207 1122.19C527.411 1124.99 525.841 1128.78 525.841 1132.73C525.841 1133.59 526.01 1134.44 526.339 1135.24C526.668 1136.03 527.151 1136.76 527.759 1137.36C528.367 1137.97 529.089 1138.46 529.884 1138.78C530.679 1139.11 531.531 1139.28 532.391 1139.28Z" fill="#9900B7"/>
<g style="mix-blend-mode:multiply">
<g style="mix-blend-mode:multiply">
<path d="M594.323 1313.92C589.402 1314.43 584.432 1313.73 579.849 1311.86C575.266 1310 571.212 1307.04 568.044 1303.24L511.767 1236.77C500.657 1223.65 501.908 1203.79 514.562 1192.42C517.558 1189.73 521.069 1187.67 524.882 1186.36C528.696 1185.06 532.734 1184.54 536.754 1184.83C540.773 1185.13 544.691 1186.24 548.272 1188.09C551.853 1189.94 555.023 1192.49 557.591 1195.6L613.866 1262.07C624.976 1275.19 623.725 1295.05 611.071 1306.41C606.421 1310.62 600.559 1313.25 594.323 1313.92Z" fill="#FDE25D"/>
</g>
</g>
<path d="M594.363 1311.93C589.673 1311.94 585.05 1310.81 580.888 1308.65C576.727 1306.48 573.151 1303.34 570.463 1299.5L523.704 1232.7C519.327 1226.36 517.634 1218.55 518.995 1210.98C520.356 1203.4 524.661 1196.66 530.969 1192.25C537.277 1187.83 545.076 1186.09 552.662 1187.41C560.249 1188.72 567.007 1192.99 571.46 1199.27L618.219 1266.07C621.275 1270.44 623.076 1275.56 623.424 1280.87C623.773 1286.19 622.658 1291.51 620.199 1296.23C617.74 1300.96 614.031 1304.93 609.477 1307.69C604.922 1310.46 599.696 1311.93 594.366 1311.93L594.363 1311.93Z" fill="#FFF95B"/>
<path d="M494.055 1117.82C496.36 1117.82 498.229 1115.96 498.229 1113.65C498.229 1111.35 496.36 1109.48 494.055 1109.48C491.75 1109.48 489.881 1111.35 489.881 1113.65C489.881 1115.96 491.75 1117.82 494.055 1117.82Z" fill="white"/>
<path d="M603.429 1117.82C605.734 1117.82 607.603 1115.96 607.603 1113.65C607.603 1111.35 605.734 1109.48 603.429 1109.48C601.124 1109.48 599.255 1111.35 599.255 1113.65C599.255 1115.96 601.124 1117.82 603.429 1117.82Z" fill="white"/>
<path d="M662.551 1463.73C662.551 1467.41 660.725 1470.57 658.099 1471.11L576.669 1487.79C574.345 1488.25 572.127 1485.93 571.689 1482.61L567.675 1459.82C570.891 1462.84 578.553 1464.17 588.457 1464.64C595.997 1464.97 603.543 1464.13 610.825 1462.14L651.747 1451.12C656.727 1450.11 661.526 1455.09 662.461 1462.27C662.52 1462.76 662.55 1463.24 662.551 1463.73Z" fill="#33D47F"/>
<path d="M569.236 1481.28L666.536 1458.9L667.811 1471.5L605.634 1492.47H567.674L569.236 1481.28Z" fill="#03947A"/>
<path d="M418.736 1463.17C418.736 1466.85 420.562 1470 423.188 1470.55L504.618 1487.22C506.942 1487.69 509.16 1485.36 509.598 1482.04L511.566 1470.87C511.756 1469.8 511.686 1468.7 511.361 1467.66C511.036 1466.62 510.465 1465.68 509.698 1464.91C508.931 1464.13 507.99 1463.56 506.953 1463.23C505.917 1462.9 504.816 1462.82 503.743 1463C500.131 1463.58 496.487 1463.93 492.831 1464.07C485.292 1464.4 477.746 1463.56 470.465 1461.57L429.542 1450.55C424.562 1449.54 419.763 1454.52 418.827 1461.7C418.768 1462.19 418.737 1462.68 418.736 1463.17Z" fill="#33D47F"/>
<path d="M512.052 1480.71L414.752 1458.33L413.477 1470.94L475.654 1491.9H513.614L512.052 1480.71Z" fill="#03947A"/>
<path d="M601.341 1343.01C601.341 1343.01 613.053 1385.43 573.396 1385.43" stroke="white" stroke-width="6" stroke-linecap="round" stroke-linejoin="round"/>
<path d="M600.161 1334.32C602.875 1334.32 605.075 1332.12 605.075 1329.41C605.075 1326.7 602.875 1324.5 600.161 1324.5C597.447 1324.5 595.247 1326.7 595.247 1329.41C595.247 1332.12 597.447 1334.32 600.161 1334.32Z" fill="white"/>
<path d="M152.45 330.8V326.1H146.35V313.4H140.5V340.7H146.35V330.8H152.45ZM146.35 357.4V342.9H117.45V357.4H146.35ZM140.45 352.85H123.3V347.4H140.45V352.85ZM137.2 325.2V320.65H111.15V325.2H137.2ZM117.8 318.7H131V314.15H117.8V318.7ZM134.95 333.85C134.95 329.25 130.4 326.15 124.35 326.15C118.2 326.15 113.65 329.25 113.65 333.85C113.65 338.4 118.25 341.45 124.35 341.45C130.4 341.45 134.95 338.4 134.95 333.85ZM119.55 333.85C119.55 331.9 121.7 330.65 124.35 330.65C126.95 330.65 129.2 331.9 129.2 333.85C129.2 335.7 126.95 337.05 124.35 337.05C121.75 337.05 119.55 335.7 119.55 333.85ZM175.962 318.55H167.262V323.4H170.612C170.662 333.1 168.362 340.8 163.162 347.25L167.762 350.15C171.262 345.1 173.362 340.45 174.612 335.1H178.712V355.9H184.212V314.2H178.712V330.4H175.412C175.812 326.9 175.962 323.05 175.962 318.55ZM193.012 357.95V313.4H187.412V357.95H193.012ZM165.862 318.55H156.062V323.4H160.512C160.512 331.6 158.412 338.25 153.562 343.85L158.062 346.8C163.462 339.85 165.912 332.25 165.862 318.55ZM248.008 357.95V313.4H242.158V357.95H248.008ZM234.308 318.05H213.508V322.9H228.008C227.208 331.75 220.558 341.05 210.808 345.5L214.408 349.9C228.008 342.5 233.958 331.5 234.308 318.05ZM283.42 355.9V314.25H277.97V325.1H273.42V329.85H277.97V336.15H272.32V340.9H277.97V355.9H283.42ZM292.32 357.95V313.4H286.77V357.95H292.32ZM272.97 318.65H256.12V323.35H267.32C266.62 332.2 261.92 340 253.32 345.2L257.12 349.25C267.97 342.1 273.02 331.95 272.97 318.65ZM332.432 313.4H326.582V357.95H332.432V335.2H338.832V330.35H332.432V313.4ZM323.582 345L322.982 340.35C318.232 341.5 311.382 342.1 305.182 342.1V317.85H299.382V347.1H303.432C308.732 347.1 318.232 346.45 323.582 345ZM367.243 346.35L366.743 341.65C360.993 342.7 352.793 342.95 348.543 342.95V333.9H362.993V317.2H342.493V321.85H357.143V329.25H342.693V347.75H347.393C354.943 347.75 362.543 347.25 367.243 346.35ZM375.743 313.4H369.893V357.95H375.743V335.3H381.993V330.5H375.743V313.4ZM424.455 338.05V333.75H384.205V338.05H424.455ZM420.355 357.45V353.25H395.155V350.95H419.305V340.55H389.105V344.75H413.505V347.1H389.305V357.45H420.355ZM420.005 331.4V327.25H395.355V324.95H419.055V314.8H389.405V318.95H413.155V321.3H389.505V331.4H420.005ZM480.852 352.35V347.7H463.552V338.25H476.052V316.9H445.452V338.25H457.702V347.7H440.602V352.35H480.852ZM470.202 333.6H451.252V321.5H470.202V333.6ZM520.713 357.4V343.35H490.813V357.4H520.713ZM514.863 352.8H496.713V347.85H514.863V352.8ZM520.713 341.25V313.4H514.863V328.05H508.663V332.75H514.863V341.25H520.713ZM509.413 325.5V321H483.513V325.5H509.413ZM507.063 334C507.063 329.6 502.463 326.65 496.413 326.65C490.263 326.65 485.763 329.6 485.763 334C485.763 338.4 490.313 341.35 496.413 341.35C502.463 341.35 507.063 338.4 507.063 334ZM501.213 334C501.213 335.8 499.063 337.1 496.413 337.1C493.763 337.1 491.563 335.8 491.563 334C491.563 332.2 493.713 330.85 496.413 330.85C499.063 330.85 501.213 332.2 501.213 334ZM489.963 319.05H503.163V314.45H489.963V319.05ZM552.775 328.65V324H526.925V328.65H552.775ZM533.175 320.9H546.925V316.3H533.175V320.9ZM561.975 313.4H556.075V357.95H561.975V336.3H568.175V331.45H561.975V313.4ZM529.125 339.8C529.125 345.45 533.475 349.4 539.875 349.4C546.275 349.4 550.625 345.25 550.625 339.8C550.625 334.2 546.275 330.2 539.875 330.2C533.475 330.2 529.125 334.35 529.125 339.8ZM534.825 339.8C534.825 336.85 536.975 334.9 539.875 334.9C542.775 334.9 544.925 336.85 544.925 339.8C544.925 342.7 543.125 344.65 539.875 344.65C536.925 344.65 534.825 342.7 534.825 339.8ZM592.787 338V317.15H572.137V338H592.787ZM601.387 325V330.2H595.187V334.8H601.387V345.7H607.187V313.4H601.387V320.4H595.187V325H601.387ZM608.087 356.75V352.1H583.687V342.95H577.887V356.75H608.087ZM586.987 333.45H577.937V321.65H586.987V333.45ZM650.548 357.95V313.4H644.648V328.45H636.598V333.4H644.648V357.95H650.548ZM640.748 343.65C634.048 339.35 630.048 332.45 630.048 323.65V317.15H624.048V323.95C624.048 332.8 620.148 339.85 612.998 344.5L616.498 348.8C621.148 346.3 625.698 340.65 627.148 335.55C628.648 340.2 633.698 345.8 637.398 348.05L640.748 343.65ZM149.35 427.95V383.4H143.8V400.95H139.5V384.2H134.05V425.9H139.5V405.65H143.8V427.95H149.35ZM132.25 414.85C132 413.25 131.7 411.75 131.5 410.15C128.75 410.95 123.55 411.3 119.2 411.3V388.6H113.45V416.15H117.45C122.75 416.15 129.9 415.55 132.25 414.85ZM196.012 405.35V400.5H189.562V383.4H183.762V427.95H189.562V405.35H196.012ZM177.862 387.95H157.062V392.8H171.512C170.712 401.7 164.062 411.05 154.362 415.5L157.912 419.9C171.562 412.5 177.462 401.4 177.862 387.95ZM249.008 427.95V383.4H243.458V400.95H239.158V384.2H233.708V425.9H239.158V405.65H243.458V427.95H249.008ZM231.908 414.85C231.658 413.25 231.358 411.75 231.158 410.15C228.408 410.95 223.208 411.3 218.858 411.3V388.6H213.108V416.15H217.108C222.408 416.15 229.558 415.55 231.908 414.85ZM294.67 410.05V405.35H254.42V410.05H294.67ZM289.72 400.35V395.7H265.67V384.85H259.82V400.35H289.72ZM290.02 426.75V422.1H265.37V413.6H259.57V426.75H290.02ZM336.516 386.6H314.216V391.15H330.616C330.616 392.45 330.566 393.75 330.516 394.95L312.816 396.05C313.116 397.65 313.366 399.2 313.616 400.8C319.116 400.3 324.716 399.85 330.266 399.3C330.066 401.3 329.766 403.15 329.366 405.05C323.516 405.4 316.516 405.6 310.316 405.6L311.116 410.2C314.316 410.2 318.116 410.1 322.016 409.95V425.85H327.866V409.6C332.866 409.35 337.466 408.95 340.516 408.55L340.166 404.2C338.866 404.4 337.116 404.55 335.116 404.7C335.966 400.05 336.516 393.9 336.516 386.6ZM348.416 383.4H342.616V427.95H348.416V383.4ZM392.928 405.65C386.328 404.65 377.978 399.65 377.478 392.2H390.578V387.5H357.728V392.2H370.978C370.528 399.75 362.578 404.6 355.528 405.55L358.378 410.25C364.328 409.1 371.778 405 374.178 399.15C376.828 404.95 384.078 408.9 390.078 410.25L392.928 405.65ZM394.328 422.1V417.45H354.078V422.1H394.328ZM437.59 408.05V403.75H397.34V408.05H437.59ZM433.49 427.45V423.25H408.29V420.95H432.44V410.55H402.24V414.75H426.64V417.1H402.44V427.45H433.49ZM433.14 401.4V397.25H408.49V394.95H432.19V384.8H402.54V388.95H426.29V391.3H402.64V401.4H433.14ZM475.886 405.75V386.3H454.986V405.75H475.886ZM459.486 410.35V415H471.286C470.336 419.85 463.436 423.7 457.086 423.7L459.886 428.25C466.186 427.75 472.636 423.45 474.236 420.3C475.936 423.4 482.636 427.75 488.636 428.3L491.386 423.75C485.136 423.75 478.286 419.7 477.436 415H489.236V410.35H459.486ZM494.886 398.55V393.75H488.536V383.4H482.636V408.2H488.536V398.55H494.886ZM470.086 401.2H460.786V390.8H470.086V401.2ZM533.848 427.95V383.4H527.998V427.95H533.848ZM523.498 398.45V393.8H497.548V398.45H523.498ZM503.798 390.9H517.548V386.25H503.798V390.9ZM499.948 409.75C499.948 415.45 504.398 419.35 510.798 419.35C517.298 419.35 521.698 415.25 521.698 409.75C521.698 404.2 517.298 400.15 510.798 400.15C504.398 400.15 499.948 404.35 499.948 409.75ZM505.748 409.75C505.748 406.8 507.848 404.85 510.798 404.85C513.848 404.85 515.998 406.8 515.998 409.75C515.998 412.7 514.148 414.65 510.798 414.65C507.798 414.65 505.748 412.7 505.748 409.75ZM562.66 408V387.15H542.01V408H562.66ZM571.26 395V400.2H565.06V404.8H571.26V415.7H577.06V383.4H571.26V390.4H565.06V395H571.26ZM577.96 426.75V422.1H553.56V412.95H547.76V426.75H577.96ZM556.86 403.45H547.81V391.65H556.86V403.45ZM148.35 497.95V453.4H142.5V497.95H148.35ZM134.65 458.05H113.85V462.9H128.35C127.55 471.75 120.9 481.05 111.15 485.5L114.75 489.9C128.35 482.5 134.3 471.5 134.65 458.05ZM183.762 495.9V454.25H178.312V465.1H173.762V469.85H178.312V476.15H172.662V480.9H178.312V495.9H183.762ZM192.662 497.95V453.4H187.112V497.95H192.662ZM173.312 458.65H156.462V463.35H167.662C166.962 472.2 162.262 480 153.662 485.2L157.462 489.25C168.312 482.1 173.362 471.95 173.312 458.65ZM232.773 453.4H226.923V497.95H232.773V475.2H239.173V470.35H232.773V453.4ZM223.923 485L223.323 480.35C218.573 481.5 211.723 482.1 205.523 482.1V457.85H199.723V487.1H203.773C209.073 487.1 218.573 486.45 223.923 485ZM267.585 486.35L267.085 481.65C261.335 482.7 253.135 482.95 248.885 482.95V473.9H263.335V457.2H242.835V461.85H257.485V469.25H243.035V487.75H247.735C255.285 487.75 262.885 487.25 267.585 486.35ZM276.085 453.4H270.235V497.95H276.085V475.3H282.335V470.5H276.085V453.4ZM324.797 478.05V473.75H284.547V478.05H324.797ZM320.697 497.45V493.25H295.497V490.95H319.647V480.55H289.447V484.75H313.847V487.1H289.647V497.45H320.697ZM320.347 471.4V467.25H295.697V464.95H319.397V454.8H289.747V458.95H313.497V461.3H289.847V471.4H320.347ZM366.293 463.1C366.293 458.3 361.643 454.8 355.143 454.8C348.643 454.8 343.843 458.3 343.843 463C343.843 467.9 348.643 471.3 355.143 471.3C361.643 471.3 366.293 467.9 366.293 463.1ZM364.193 483.35H372.693V487.85H378.543V453.4H372.693V479.15H364.193V483.35ZM379.243 496.75V492.1H352.393V483.6H346.543V496.75H379.243ZM359.693 485.7V477.35C363.143 477.1 366.443 476.8 369.493 476.3L369.143 472C362.893 472.8 351.693 473.35 340.743 473.35C341.043 474.85 341.293 476.45 341.543 477.95C344.893 477.95 349.243 477.9 353.893 477.75V485.7H359.693ZM360.493 463.1C360.493 465.05 358.443 466.9 355.143 466.9C351.743 466.9 349.743 465.05 349.743 463.1C349.743 461.15 351.743 459.15 355.143 459.15C358.443 459.15 360.493 461.15 360.493 463.1ZM422.105 497.95V453.4H416.505V470.9H412.755V454.2H407.255V495.9H412.755V475.6H416.505V497.95H422.105ZM405.155 486.1C405.005 484.6 404.755 483.1 404.505 481.6C400.705 482.45 396.755 482.7 391.605 482.7V474.35H402.555V458.25H385.655V462.9H396.705V469.75H385.705V487.35H389.255C394.355 487.35 401.355 487.05 405.155 486.1ZM465.367 497.95V453.4H459.767V470.95H455.817V454.2H450.317V495.9H455.817V475.6H459.767V497.95H465.367ZM434.617 482.6V463.3C438.317 463.3 441.967 463.35 445.617 463.35V458.7H428.767V487.4H433.017C438.167 487.4 444.717 487.1 448.067 486.2L447.517 481.6C444.517 482.35 439.167 482.75 434.617 482.6ZM507.179 480.8V476.1H481.679V470.7H505.879V456.25H475.629V460.9H500.079V466.05H475.879V480.8H487.829V487.75H470.729V492.4H510.979V487.75H493.679V480.8H507.179ZM555.825 483.4C552.625 483.8 548.725 484.1 544.525 484.3V476.35H553.025V471.75H536.475V462.05H552.875V457.4H530.625V476.35H538.675V484.5C534.875 484.6 530.975 484.65 527.025 484.65L527.825 489.4C531.525 489.4 537.725 489.2 542.525 489.05C547.825 488.8 552.225 488.4 556.425 487.85L555.825 483.4ZM564.175 453.4H558.325V497.95H564.175V453.4ZM605.887 468.35V463.7H581.587V459.05H605.537V454.35H575.737V468.35H587.487V471.7H570.387V476.35H610.637V471.7H593.337V468.35H605.887ZM606.887 497.5V492.75H581.237V490.2H605.287V478.8H575.487V483.45H599.487V486.05H575.437V497.5H606.887ZM637.548 486.75L636.898 482.05C631.148 483.15 625.298 483.2 621.148 483.2V473.95H634.548V457.2H615.248V461.85H628.698V469.3H615.248V487.95C616.848 487.95 618.398 488 619.948 488C627.548 488 632.898 487.65 637.548 486.75ZM637.448 480.05H644.648V497.95H650.448V453.4H644.648V463.85H637.448V468.6H644.648V475.35H637.448V480.05ZM693.46 497.75V493H667.61V490.65H691.86V479.5H679.86V476.65H697.16V471.95H656.91V476.65H674.01V479.5H661.76V484.15H686.01V486.5H661.81V497.75H693.46ZM695.21 466C689.46 465.8 682.76 463.55 680.86 459.3H693.16V454.75H661.06V459.3H673.41C671.71 463.5 665.86 465.75 659.01 466.1L661.46 470.55C668.46 469.95 674.81 467.3 677.06 462.9C679.66 467.15 686.46 469.9 692.66 470.5L695.21 466ZM738.072 497.95V453.4H732.522V497.95H738.072ZM729.122 495.9V454.25H723.672V470.9H717.872V475.6H723.672V495.9H729.122ZM719.022 458.65H701.872V463.35H713.322C712.672 472.2 707.872 480 699.172 485.2L702.972 489.25C713.872 482.1 719.022 471.95 719.022 458.65ZM745.184 492.75H751.284V486.9H745.184V492.75Z" fill="#4C2B95"/>
<path d="M379.971 119.57H95.0293C77.34 119.57 63 132.106 63 147.57V197.451C63 212.915 77.34 225.451 95.0293 225.451H379.971C397.66 225.451 412 212.915 412 197.451V147.57C412 132.106 397.66 119.57 379.971 119.57Z" fill="#4FEEA2"/>
<path d="M166.286 197.13V183.914L156.315 184.504V176.598C160.504 173.825 163.041 169.459 163.041 163.736C163.041 153.352 154.663 147.393 143.453 147.393H134.426C123.216 147.393 114.838 153.352 114.838 163.736C114.838 169.459 117.316 173.766 121.505 176.598V186.569L111.534 187.159V197.13H166.286ZM135.37 169.518C130.709 169.518 126.992 167.689 126.992 163.736C126.992 159.783 130.709 157.954 135.37 157.954H142.509C147.17 157.954 150.887 159.783 150.887 163.736C150.887 167.689 147.17 169.518 142.509 169.518H135.37ZM144.161 185.271L133.659 185.861V180.079H134.426H143.453H144.161V185.271ZM221.479 172.881V148.101H209.325V152.703L205.903 152.998V148.101H171.624V158.072H182.834V160.078L167.671 169.636L174.515 177.778L189.265 168.633L202.245 175.418L208.499 167.04L195.283 160.078V158.072H202.717V163.559L209.325 162.969V174.12L221.479 172.881ZM209.384 199.726C217.467 199.726 222.6 194.947 222.6 187.454C222.6 179.371 217.408 174.592 209.384 175.182L187.613 176.775C179.648 177.365 174.456 181.377 174.456 188.28C174.456 195.183 179.589 199.726 187.613 199.726H209.384ZM207.083 185.566C208.853 185.448 210.623 185.684 210.682 186.982C210.741 188.28 208.971 188.575 207.201 188.634L189.973 189.578C188.203 189.578 186.374 189.637 186.315 188.339C186.256 187.041 188.085 186.805 189.855 186.687L207.083 185.566ZM295.925 197.13V184.799L274.803 186.097V182.439C283.771 182.026 289.966 177.837 289.966 171.111C289.966 169.459 289.494 168.043 288.609 166.863H293.565V157.246H243.533V166.863H248.489C247.604 168.043 247.132 169.459 247.132 171.111C247.132 177.837 253.327 182.026 262.295 182.439V186.805L241.173 188.044V197.13H295.925ZM283.535 155.712V146.036H253.563V155.712H283.535ZM274.095 166.863C276.337 166.981 277.871 167.925 277.871 169.636C277.871 171.406 276.16 172.35 273.741 172.35H263.357C260.938 172.35 259.227 171.406 259.227 169.636C259.227 167.807 260.938 166.863 263.357 166.863H274.095ZM333.24 163.913C333.24 154.827 327.281 148.042 316.484 148.042C305.687 148.042 299.728 154.827 299.728 163.913V181.967C299.728 191.053 305.687 197.779 316.484 197.779C327.281 197.779 333.24 191.053 333.24 181.967V163.913ZM348.757 197.307V186.628L355.011 185.92V173.884L348.757 174.592V168.928L355.011 168.22V156.184L348.757 156.892V148.101H336.603V199.667L348.757 197.307ZM321.145 181.495C321.145 184.858 319.257 186.923 316.484 186.923C313.711 186.923 311.823 184.858 311.823 181.495V164.385C311.823 161.022 313.711 158.898 316.484 158.898C319.257 158.898 321.145 161.022 321.145 164.385V181.495Z" fill="#4C2B95"/>
</svg>
