<svg width="1080" height="1920" viewBox="0 0 1080 1920" fill="none" xmlns="http://www.w3.org/2000/svg">
<path d="M1080 0H0V1920H1080V0Z" fill="#7543FF"/>
<g filter="url(#filter0_d)">
<path d="M137.515 355.555C137.515 349.45 131.19 345.71 120.355 345.71C109.52 345.71 103.195 349.45 103.195 355.555C103.195 361.495 109.52 365.235 120.355 365.235C131.19 365.235 137.515 361.495 137.515 355.555ZM98.355 325.085H108.09C107.705 332.07 103.195 337.24 96.32 339.715C97.64 341.365 98.85 343.015 100.17 344.72C104.9 343.07 110.07 338.45 111.555 333.72C113.645 338.175 118.43 341.86 122.17 343.29C123.325 341.585 124.535 339.935 125.635 338.23C120.3 336.47 115.35 331.905 114.855 325.085H124.15V319.805H98.355V325.085ZM123.38 333.225H130.75V345.49H137.185V316.34H130.75V328.055H123.38V333.225ZM120.355 350.88C127.12 350.88 130.97 352.585 130.97 355.555C130.97 358.415 127.12 360.12 120.355 360.12C113.7 360.12 109.795 358.415 109.795 355.555C109.795 352.585 113.7 350.88 120.355 350.88ZM189.503 332.18V326.9H182.518V316.34H176.028V342.355H182.518V332.18H189.503ZM152.213 336.03V324.425H167.668V319.31H145.833V341.2H150.618C159.638 341.2 167.668 340.595 172.288 339.495L171.573 334.6C166.568 335.59 159.363 336.03 152.213 336.03ZM182.518 364.74V344.83H176.083V349.89H157.163V344.94H150.783V364.74H182.518ZM176.083 359.625H157.163V354.84H176.083V359.625ZM232.306 365.345V316.34H225.926V365.345H232.306ZM193.201 337.24C193.201 347.525 197.876 354.675 205.851 354.675C213.881 354.675 218.556 347.47 218.556 337.24C218.556 326.9 213.881 319.695 205.851 319.695C197.876 319.695 193.201 326.9 193.201 337.24ZM212.396 337.24C212.396 344.94 209.646 349.505 205.851 349.505C202.166 349.505 199.471 344.94 199.471 337.24C199.471 329.485 202.166 324.865 205.851 324.865C209.646 324.865 212.396 329.485 212.396 337.24ZM239.799 337.24C239.799 347.525 244.529 354.675 252.504 354.675C260.534 354.675 265.209 347.47 265.209 337.24C265.209 326.9 260.534 319.695 252.504 319.695C244.529 319.695 239.799 326.9 239.799 337.24ZM284.569 327.835H277.694V316.34H271.259V365.345H277.694V348.405H284.569V343.07H277.694V333.17H284.569V327.835ZM259.049 337.24C259.049 344.94 256.299 349.505 252.504 349.505C248.819 349.505 246.069 344.94 246.069 337.24C246.069 329.485 248.819 324.865 252.504 324.865C256.299 324.865 259.049 329.485 259.049 337.24ZM290.302 347.8H295.802L296.572 319.585H289.422L290.302 347.8ZM289.752 359.515H296.352V353.08H289.752V359.515ZM134.875 392.34H128.44V441.345H134.875V416.32H141.915V410.985H134.875V392.34ZM125.14 427.1L124.48 421.985C119.255 423.25 111.72 423.91 104.9 423.91V397.235H98.52V429.41H102.975C108.805 429.41 119.255 428.695 125.14 427.1ZM182.903 394.265H149.903V414.065H182.903V394.265ZM169.483 441.4V425.12H188.513V420.005H144.238V425.12H163.048V441.4H169.483ZM176.523 408.95H156.338V399.38H176.523V408.95ZM236.101 421.655V416.485H191.826V421.655H236.101ZM230.656 410.985V405.87H204.201V393.935H197.766V410.985H230.656ZM230.986 440.025V434.91H203.871V425.56H197.491V440.025H230.986ZM292.527 431.995C292.527 426.33 286.312 422.645 275.532 422.645C264.697 422.645 258.427 426.33 258.427 431.995C258.427 437.66 264.697 441.345 275.532 441.345C286.312 441.345 292.527 437.66 292.527 431.995ZM298.137 418.905V413.79H277.072V405.265H270.637V413.79H253.862V418.905H298.137ZM292.417 394.1H258.922V399.16H285.982C285.982 404.33 285.487 407.245 284.662 410.545C286.752 410.765 288.842 411.095 290.877 411.37C291.757 407.355 292.417 403.23 292.417 394.1ZM285.982 432.05C285.982 434.8 281.912 436.23 275.532 436.23C269.097 436.23 265.082 434.8 265.082 432.05C265.082 429.19 269.097 427.815 275.532 427.815C281.912 427.815 285.982 429.19 285.982 432.05ZM341.985 441.345V392.34H335.55V441.345H341.985ZM326.915 397.455H304.035V402.79H319.985C319.105 412.525 311.79 422.755 301.065 427.65L305.025 432.49C319.985 424.35 326.53 412.25 326.915 397.455ZM393.313 419.455V414.725H349.038V419.455H393.313ZM388.803 440.795V436.175H361.083V433.645H387.648V422.205H354.428V426.825H381.268V429.41H354.648V440.795H388.803ZM388.418 412.14V407.575H361.303V405.045H387.373V393.88H354.758V398.445H380.883V401.03H354.868V412.14H388.418ZM453.094 441.345V392.34H446.989V411.755H443.359V393.22H437.364V439.09H443.359V416.87H446.989V441.345H453.094ZM434.614 398.005H425.044V403.34H428.729C428.784 414.01 426.144 422.48 420.369 429.575L425.484 432.765C432.634 422.315 434.669 413.57 434.614 398.005ZM423.229 398.005H412.339V403.34H417.289C417.289 412.36 414.924 419.675 409.534 425.835L414.484 429.08C420.424 421.435 423.284 413.075 423.229 398.005ZM498.042 394.155H482.202V399.215H491.552C491.552 402.02 491.112 407.63 489.737 412.36H476.592C478.077 407.19 478.847 399.82 478.847 394.155H462.732V399.215H472.357C472.357 403.45 471.312 409.115 470.157 412.36H458.662V417.53H502.937V412.36H496.062C497.382 406.31 498.042 399.875 498.042 394.155ZM499.747 436.56C491.772 435.515 484.017 430.455 484.017 424.075V422.04H477.417V424.075C477.417 430.62 470.267 435.625 461.577 436.45L464.437 441.675C471.697 440.74 478.572 435.845 480.717 431.555C483.137 435.845 490.177 440.63 496.887 441.675L499.747 436.56ZM534.465 409.115V404H506.03V409.115H534.465ZM512.905 400.59H528.03V395.53H512.905V400.59ZM544.585 392.34H538.095V441.345H544.585V417.53H551.405V412.195H544.585V392.34ZM508.45 421.38C508.45 427.595 513.235 431.94 520.275 431.94C527.315 431.94 532.1 427.375 532.1 421.38C532.1 415.22 527.315 410.82 520.275 410.82C513.235 410.82 508.45 415.385 508.45 421.38ZM514.72 421.38C514.72 418.135 517.085 415.99 520.275 415.99C523.465 415.99 525.83 418.135 525.83 421.38C525.83 424.57 523.85 426.715 520.275 426.715C517.03 426.715 514.72 424.57 514.72 421.38ZM595.528 441.345V392.34H589.423V441.345H595.528ZM585.683 439.09V393.275H579.688V411.59H573.308V416.76H579.688V439.09H585.683ZM574.573 398.115H555.708V403.285H568.303C567.588 413.02 562.308 421.6 552.738 427.32L556.918 431.775C568.908 423.91 574.573 412.745 574.573 398.115ZM134.985 468.34H128.495V517.345H134.985V492.155H141.97V486.82H134.985V468.34ZM121.62 505.245V472.19H115.185V484.07H104.79V472.3H98.41V505.245H121.62ZM115.185 500.185H104.79V489.13H115.185V500.185ZM163.433 515.915V495.015C168.493 494.74 173.058 494.355 177.348 493.75L176.633 488.855C175.313 489.02 173.883 489.24 172.288 489.295C173.168 484.895 173.883 478.735 173.883 472.3H161.398V477.36H167.448C167.448 481.265 166.953 486.38 166.128 489.735C164.148 489.845 162.113 489.955 160.188 490.01C159.198 490.065 158.208 490.065 157.218 490.065C158.153 485.61 159.033 478.735 159.033 472.3H146.493V477.36H152.653C152.653 480.88 151.993 486.82 151.058 490.23C148.528 490.285 145.943 490.285 143.413 490.285L144.293 495.51C147.373 495.51 152.378 495.4 156.943 495.235V515.915H163.433ZM168.878 503.155H179.218V517.345H185.598V468.34H179.218V498.535H168.878V503.155ZM196.611 491.55C203.321 490.67 211.351 486.49 213.936 481.485C216.631 486.16 225.046 490.615 231.426 491.33C232.306 489.68 233.241 488.03 234.121 486.325C226.806 485.555 218.611 481.375 217.456 475.545H232.086V470.43H195.786V475.545H210.416C209.316 481.375 201.176 485.775 193.806 486.545L196.611 491.55ZM217.071 517.29V500.24H236.101V495.125H191.826V500.24H210.581V517.29H217.071ZM283.689 497.655V492.485H239.414V497.655H283.689ZM278.244 486.985V481.87H251.789V469.935H245.354V486.985H278.244ZM278.574 516.025V510.91H251.459V501.56H245.079V516.025H278.574ZM307.83 498.92V504.035H335.55V517.4H341.985V498.92H307.83ZM328.51 491.11H335.55V496.39H341.985V468.34H335.55V474.335H328.51L328.675 479.725H335.55V485.72H328.675L328.51 491.11ZM301.89 482.86C301.89 489.79 307.445 494.41 314.43 494.41C321.58 494.41 327.025 489.79 327.025 482.86C327.025 475.985 321.47 470.87 314.43 470.87C307.335 470.87 301.89 476.04 301.89 482.86ZM308.105 482.805C308.105 479.285 310.58 476.205 314.43 476.205C318.5 476.205 320.865 479.175 320.865 482.805C320.865 486.545 318.28 489.405 314.43 489.405C310.58 489.405 308.105 486.655 308.105 482.805ZM377.088 480.385V475.435H348.653V480.385H377.088ZM356.078 473.4H370.598V468.56H356.078V473.4ZM394.248 486.435V481.155H387.373V468.34H380.938V496.17H387.373V486.435H394.248ZM388.583 517.235V512.395H361.523V509.975H387.373V498.535H355.033V503.32H380.883V505.63H355.088V517.235H388.583ZM374.943 489.24C374.943 484.73 369.993 481.595 363.338 481.595C356.518 481.595 351.568 484.73 351.568 489.24C351.568 493.805 356.573 496.885 363.338 496.885C369.993 496.885 374.943 493.805 374.943 489.24ZM357.948 489.24C357.948 487.48 360.368 486.27 363.338 486.27C366.143 486.27 368.618 487.48 368.618 489.24C368.618 491.11 366.143 492.265 363.338 492.265C360.423 492.265 357.948 491.11 357.948 489.24ZM440.901 494.135V489.02H396.626V494.135H440.901ZM436.831 517.125V511.845H408.341V509.15H435.071V496.83H401.961V501.835H428.691V504.64H401.906V517.125H436.831ZM408.176 477.855C408.176 475.6 412.026 473.95 418.846 473.95C425.666 473.95 429.571 475.6 429.571 477.855C429.571 480.055 425.666 481.815 418.846 481.815C412.026 481.815 408.176 480.055 408.176 477.855ZM401.521 477.855C401.521 483.135 407.736 486.655 418.846 486.655C429.901 486.655 436.171 483.135 436.171 477.855C436.171 472.52 429.901 469.055 418.846 469.055C407.736 469.055 401.521 472.52 401.521 477.855ZM500.352 517.345V468.34H494.247V488.14H490.177V469.22H484.182V515.09H490.177V493.31H494.247V517.345H500.352ZM481.102 497.16C481.102 491 476.757 486.985 470.377 486.985C464.107 486.985 459.652 490.945 459.652 497.16C459.652 502.99 464.052 507.335 470.377 507.335C476.757 507.335 481.102 503.32 481.102 497.16ZM458.607 485.17H481.982V480.055H458.607V485.17ZM475.327 497.16C475.327 500.13 473.237 502.275 470.377 502.275C467.572 502.275 465.482 500.24 465.482 497.16C465.482 494.135 467.572 492.045 470.377 492.045C473.237 492.045 475.327 494.135 475.327 497.16ZM463.942 477.25H477.142V472.135H463.942V477.25ZM508.175 511.625H514.885V505.19H508.175V511.625Z" fill="white"/>
</g>
<g clip-path="url(#clip0)">
<path d="M359.75 170.294C359.751 179.972 357.015 189.453 351.856 197.641C346.697 205.829 339.326 212.39 330.596 216.566C321.866 220.743 312.132 222.364 302.52 221.242C292.907 220.12 283.808 216.302 276.274 210.227C267.745 217.454 257.073 221.669 245.908 222.221C234.743 222.774 223.706 219.632 214.506 213.282C206.012 219.144 195.936 222.284 185.616 222.284C175.295 222.284 165.219 219.144 156.725 213.282C149.099 218.549 140.177 221.629 130.926 222.191C121.674 222.752 112.446 220.772 104.239 216.466C96.0316 212.159 89.1585 205.69 84.3632 197.759C79.568 189.828 77.0332 180.736 77.0332 171.468C77.0332 162.199 79.568 153.108 84.3632 145.176C89.1585 137.245 96.0316 130.776 104.239 126.47C112.446 122.164 121.674 120.184 130.926 120.745C140.177 121.306 149.099 124.387 156.725 129.653C165.219 123.791 175.295 120.652 185.616 120.652C195.936 120.652 206.012 123.791 214.506 129.653C223.449 123.482 234.133 120.337 244.993 120.676C255.853 121.016 266.32 124.823 274.86 131.54C282.29 125.097 291.415 120.926 301.149 119.524C310.883 118.122 320.815 119.548 329.761 123.632C338.707 127.716 346.291 134.286 351.608 142.559C356.925 150.832 359.752 160.459 359.751 170.293L359.75 170.294Z" fill="url(#paint0_linear)"/>
<path d="M214.749 170.935V152.379H205.648V155.825L203.085 156.046V152.379H177.417V159.845H185.811V161.348L174.457 168.505L179.581 174.602L190.626 167.754L200.346 172.834L205.029 166.561L195.133 161.348V159.845H200.7V163.954L205.648 163.512V171.862L214.749 170.935ZM205.692 191.037C211.745 191.037 215.588 187.458 215.588 181.847C215.588 175.794 211.7 172.216 205.692 172.658L189.389 173.85C183.425 174.292 179.537 177.297 179.537 182.466C179.537 187.635 183.381 191.037 189.389 191.037H205.692ZM203.969 180.433C205.294 180.345 206.62 180.522 206.664 181.494C206.708 182.466 205.383 182.686 204.057 182.731L191.157 183.438C189.831 183.438 188.462 183.482 188.417 182.51C188.373 181.538 189.743 181.361 191.068 181.273L203.969 180.433ZM260.982 165.589V156.576L256.299 157.106V152.379H247.198V163.468L229.084 165.059V159.713H244.193V152.379H220.027V173.32L247.198 170.537L256.299 169.609V166.119L260.982 165.589ZM256.299 190.285V170.758L247.198 171.686V173.762L231.69 175.529V173.188L222.589 174.116V190.285H256.299ZM247.198 181.67L231.69 182.996V181.803L247.198 180.036V181.67Z" fill="#1F1A57"/>
</g>
<g filter="url(#filter1_d)">
<g clip-path="url(#clip1)">
<path d="M579.149 2404.48C1157.67 2404.48 1626.65 1935.49 1626.65 1356.98C1626.65 778.458 1157.67 309.477 579.149 309.477C0.631165 309.477 -468.351 778.458 -468.351 1356.98C-468.351 1935.49 0.631165 2404.48 579.149 2404.48Z" fill="#FD5570"/>
<g filter="url(#filter2_d)">
<path d="M533.5 850.5H525.5C402.34 850.5 302.5 950.34 302.5 1073.5C302.5 1196.66 402.34 1296.5 525.5 1296.5H533.5C656.659 1296.5 756.5 1196.66 756.5 1073.5C756.5 950.34 656.659 850.5 533.5 850.5Z" fill="white"/>
</g>
<path d="M550.658 1125.98C557.073 1123.87 562.658 1119.78 566.62 1114.31C570.582 1108.83 572.719 1102.25 572.729 1095.5V1060.9C572.718 1052.39 569.333 1044.23 563.315 1038.21C557.298 1032.19 549.139 1028.81 540.629 1028.8H514.911C506.4 1028.81 498.241 1032.19 492.224 1038.21C486.206 1044.23 482.821 1052.39 482.811 1060.9V1095.5C482.82 1102.25 484.957 1108.83 488.918 1114.31C492.88 1119.78 498.465 1123.87 504.88 1125.98C509.797 1130.68 510.515 1141.14 510.515 1141.14V1182.41C510.515 1182.41 509.844 1192.21 505.34 1197.1H501.385C498.785 1197.1 496.293 1198.13 494.455 1199.97C492.617 1201.81 491.585 1204.3 491.585 1206.9C491.585 1209.5 492.617 1211.99 494.455 1213.83C496.293 1215.67 498.785 1216.7 501.385 1216.7H555.166C557.765 1216.7 560.257 1215.67 562.095 1213.83C563.933 1211.99 564.966 1209.5 564.966 1206.9C564.966 1204.3 563.933 1201.81 562.095 1199.97C560.257 1198.13 557.765 1197.1 555.166 1197.1H550.195C545.695 1192.21 545.02 1182.41 545.02 1182.41V1141.14C545.02 1141.14 545.742 1130.69 550.658 1125.98ZM502.403 1060.89C502.406 1057.58 503.725 1054.4 506.07 1052.05C508.415 1049.71 511.594 1048.39 514.91 1048.39H540.626C543.941 1048.39 547.12 1049.71 549.465 1052.05C551.81 1054.4 553.129 1057.58 553.133 1060.89V1095.49C553.129 1098.81 551.81 1101.99 549.465 1104.33C547.12 1106.68 543.941 1108 540.626 1108H514.911C511.595 1108 508.416 1106.68 506.071 1104.33C503.726 1101.99 502.407 1098.81 502.404 1095.49L502.403 1060.89Z" fill="#0F4987"/>
<path d="M499.005 1206.9C499.005 1204.3 500.038 1201.81 501.876 1199.97C503.714 1198.13 506.206 1197.1 508.806 1197.1H512.76C517.26 1192.2 517.936 1182.41 517.936 1182.41V1141.14C517.936 1141.14 517.219 1130.69 512.302 1125.98C505.886 1123.87 500.301 1119.78 496.339 1114.31C492.378 1108.83 490.241 1102.25 490.232 1095.5V1060.9C490.242 1052.39 493.627 1044.23 499.644 1038.21C505.662 1032.19 513.821 1028.81 522.332 1028.8H514.911C506.401 1028.81 498.242 1032.19 492.224 1038.21C486.207 1044.23 482.822 1052.39 482.812 1060.9V1095.5C482.821 1102.25 484.958 1108.83 488.919 1114.31C492.881 1119.78 498.466 1123.87 504.882 1125.98C509.799 1130.68 510.516 1141.14 510.516 1141.14V1182.41C510.516 1182.41 509.845 1192.21 505.341 1197.1H501.385C498.786 1197.1 496.294 1198.13 494.456 1199.97C492.618 1201.81 491.586 1204.3 491.586 1206.9C491.586 1209.5 492.618 1211.99 494.456 1213.83C496.294 1215.67 498.786 1216.7 501.385 1216.7H508.806C507.518 1216.7 506.244 1216.45 505.055 1215.95C503.866 1215.46 502.785 1214.74 501.875 1213.83C500.965 1212.92 500.243 1211.84 499.751 1210.65C499.259 1209.46 499.005 1208.18 499.005 1206.9Z" fill="#0D7491"/>
<path d="M550.658 1125.98C557.074 1123.87 562.659 1119.78 566.621 1114.31C570.583 1108.83 572.72 1102.25 572.729 1095.5V1060.9C572.719 1052.39 569.333 1044.23 563.316 1038.21C557.298 1032.19 549.139 1028.81 540.629 1028.8H527.373C535.883 1028.81 544.042 1032.19 550.06 1038.21C556.078 1044.23 559.463 1052.39 559.473 1060.9V1095.5C559.464 1102.25 557.327 1108.83 553.365 1114.31C549.403 1119.78 543.818 1123.87 537.403 1125.98C532.485 1130.68 531.769 1141.14 531.769 1141.14V1182.41C531.769 1182.41 532.439 1192.21 536.943 1197.1H541.908C544.507 1197.1 547 1198.13 548.838 1199.97C550.676 1201.81 551.708 1204.3 551.708 1206.9C551.708 1209.5 550.676 1211.99 548.838 1213.83C547 1215.67 544.507 1216.7 541.908 1216.7H555.16C557.759 1216.7 560.252 1215.67 562.09 1213.83C563.928 1211.99 564.96 1209.5 564.96 1206.9C564.96 1204.3 563.928 1201.81 562.09 1199.97C560.252 1198.13 557.759 1197.1 555.16 1197.1H550.198C545.698 1192.21 545.023 1182.41 545.023 1182.41V1141.14C545.023 1141.14 545.741 1130.69 550.658 1125.98Z" fill="#002682"/>
<path d="M514.909 1048.39H501.657C498.341 1048.39 495.162 1049.71 492.818 1052.05C490.473 1054.4 489.154 1057.58 489.15 1060.89V1095.49C489.154 1098.81 490.473 1101.99 492.818 1104.33C495.163 1106.68 498.342 1108 501.657 1108H514.909C511.593 1108 508.414 1106.68 506.07 1104.33C503.725 1101.99 502.406 1098.81 502.402 1095.49V1060.89C502.406 1057.58 503.725 1054.4 506.07 1052.05C508.414 1049.71 511.593 1048.39 514.909 1048.39Z" fill="#002682"/>
<path d="M659.358 988.933H647.897C650.122 985.165 651.31 980.876 651.342 976.501C651.374 972.126 650.248 967.82 648.078 964.021C645.909 960.221 642.773 957.063 638.989 954.866C635.205 952.67 630.907 951.513 626.532 951.514H610.926C614.172 949.042 616.56 945.615 617.755 941.715C618.95 937.814 618.891 933.637 617.586 929.772C616.281 925.907 613.797 922.548 610.483 920.17C607.168 917.791 603.191 916.513 599.112 916.514H585.449C587.67 913.629 589.038 910.18 589.399 906.557C589.76 902.935 589.099 899.284 587.491 896.017C585.883 892.751 583.392 890.001 580.301 888.078C577.21 886.155 573.642 885.136 570.001 885.137H491.267C487.627 885.136 484.059 886.155 480.968 888.078C477.876 890.001 475.386 892.751 473.778 896.017C472.17 899.284 471.509 902.935 471.869 906.557C472.23 910.18 473.599 913.629 475.819 916.514H451.241C447.162 916.513 443.185 917.791 439.871 920.17C436.556 922.548 434.072 925.907 432.767 929.772C431.463 933.637 431.404 937.814 432.598 941.715C433.793 945.615 436.182 949.042 439.427 951.514H418.988C414.613 951.513 410.315 952.67 406.531 954.866C402.747 957.063 399.612 960.221 397.442 964.021C395.273 967.82 394.147 972.126 394.179 976.501C394.21 980.876 395.399 985.165 397.623 988.933H386.162C378.548 988.933 371.246 991.957 365.862 997.341C360.478 1002.73 357.453 1010.03 357.453 1017.64C357.453 1025.26 360.478 1032.56 365.862 1037.94C371.246 1043.33 378.548 1046.35 386.162 1046.35H422.162C421.4 1049.96 421.454 1053.7 422.32 1057.29C423.186 1060.88 424.843 1064.24 427.169 1067.11C429.495 1069.97 432.432 1072.29 435.767 1073.88C439.101 1075.47 442.747 1076.29 446.441 1076.29H614.758C618.451 1076.29 622.098 1075.47 625.431 1073.88C628.765 1072.29 631.702 1069.97 634.028 1067.1C636.354 1064.24 638.01 1060.88 638.876 1057.29C639.742 1053.7 639.796 1049.97 639.034 1046.35H659.358C666.972 1046.35 674.274 1043.33 679.658 1037.94C685.042 1032.56 688.067 1025.26 688.067 1017.64C688.067 1010.03 685.042 1002.73 679.658 997.342C674.274 991.958 666.972 988.934 659.358 988.934V988.933Z" fill="#0E9B86"/>
<path d="M570.354 1051.48C570.354 1049.76 570.175 1048.04 569.82 1046.35H590.144C597.758 1046.35 605.06 1043.33 610.444 1037.94C615.828 1032.56 618.853 1025.26 618.853 1017.64C618.853 1010.03 615.828 1002.73 610.444 997.341C605.06 991.957 597.758 988.933 590.144 988.933H578.683C580.908 985.165 582.096 980.876 582.128 976.501C582.159 972.126 581.034 967.82 578.864 964.021C576.695 960.221 573.559 957.063 569.775 954.866C565.991 952.67 561.693 951.513 557.318 951.514H541.713C544.959 949.043 547.348 945.615 548.543 941.715C549.739 937.814 549.68 933.637 548.375 929.772C547.071 925.906 544.586 922.548 541.271 920.169C537.957 917.791 533.98 916.512 529.9 916.514H516.235C518.456 913.629 519.824 910.18 520.185 906.557C520.546 902.935 519.885 899.284 518.277 896.017C516.669 892.751 514.178 890.001 511.087 888.078C507.996 886.155 504.428 885.136 500.787 885.137H491.267C487.627 885.136 484.059 886.155 480.968 888.078C477.876 890.001 475.386 892.751 473.778 896.017C472.17 899.284 471.509 902.935 471.869 906.557C472.23 910.18 473.599 913.629 475.819 916.514H451.241C447.162 916.513 443.185 917.791 439.871 920.17C436.556 922.548 434.072 925.907 432.767 929.772C431.463 933.637 431.404 937.814 432.598 941.715C433.793 945.615 436.182 949.042 439.427 951.514H418.988C414.613 951.513 410.315 952.67 406.531 954.866C402.747 957.063 399.612 960.221 397.442 964.021C395.273 967.82 394.147 972.126 394.179 976.501C394.21 980.876 395.399 985.165 397.623 988.933H386.162C378.548 988.933 371.246 991.957 365.862 997.341C360.478 1002.73 357.453 1010.03 357.453 1017.64C357.453 1025.26 360.478 1032.56 365.862 1037.94C371.246 1043.33 378.548 1046.35 386.162 1046.35H422.162C421.4 1049.96 421.454 1053.7 422.32 1057.29C423.186 1060.88 424.843 1064.24 427.169 1067.11C429.495 1069.97 432.432 1072.29 435.767 1073.88C439.101 1075.47 442.747 1076.29 446.441 1076.29H545.541C548.8 1076.29 552.026 1075.65 555.037 1074.41C558.047 1073.16 560.783 1071.33 563.087 1069.03C565.391 1066.72 567.219 1063.99 568.466 1060.98C569.713 1057.97 570.354 1054.74 570.354 1051.48Z" fill="#25D669"/>
<path d="M517.359 924.765H461.222C458.662 924.708 456.226 923.65 454.436 921.819C452.646 919.988 451.644 917.529 451.644 914.968C451.644 912.407 452.646 909.948 454.436 908.117C456.226 906.286 458.662 905.228 461.222 905.17H517.359C518.665 905.141 519.962 905.373 521.177 905.852C522.391 906.331 523.498 907.048 524.432 907.961C525.365 908.873 526.107 909.963 526.613 911.167C527.12 912.37 527.381 913.662 527.381 914.968C527.381 916.274 527.12 917.566 526.613 918.769C526.107 919.973 525.365 921.063 524.432 921.975C523.498 922.888 522.391 923.605 521.177 924.084C519.962 924.563 518.665 924.795 517.359 924.765Z" fill="#D9FF43"/>
<path d="M467.896 1016.36H373.446C370.886 1016.3 368.45 1015.24 366.66 1013.41C364.87 1011.58 363.867 1009.12 363.867 1006.56C363.867 1004 364.87 1001.54 366.66 999.707C368.45 997.876 370.886 996.818 373.446 996.76H467.896C469.201 996.731 470.499 996.962 471.714 997.442C472.928 997.921 474.035 998.638 474.968 999.55C475.902 1000.46 476.643 1001.55 477.15 1002.76C477.656 1003.96 477.917 1005.25 477.917 1006.56C477.917 1007.86 477.656 1009.16 477.15 1010.36C476.643 1011.56 475.902 1012.65 474.968 1013.57C474.035 1014.48 472.928 1015.19 471.714 1015.67C470.499 1016.15 469.201 1016.38 467.896 1016.36Z" fill="#D9FF43"/>
<path d="M600.454 1079.94H471.087C469.782 1079.97 468.484 1079.74 467.269 1079.26C466.055 1078.78 464.948 1078.06 464.014 1077.15C463.081 1076.24 462.339 1075.15 461.833 1073.95C461.326 1072.74 461.065 1071.45 461.065 1070.14C461.065 1068.84 461.326 1067.55 461.833 1066.34C462.339 1065.14 463.081 1064.05 464.014 1063.14C464.948 1062.22 466.055 1061.51 467.269 1061.03C468.484 1060.55 469.782 1060.32 471.087 1060.35H600.454C601.759 1060.32 603.057 1060.55 604.271 1061.03C605.486 1061.51 606.593 1062.22 607.526 1063.14C608.46 1064.05 609.201 1065.14 609.708 1066.34C610.214 1067.55 610.475 1068.84 610.475 1070.14C610.475 1071.45 610.214 1072.74 609.708 1073.95C609.201 1075.15 608.46 1076.24 607.526 1077.15C606.593 1078.06 605.486 1078.78 604.271 1079.26C603.057 1079.74 601.759 1079.97 600.454 1079.94Z" fill="#D9FF43"/>
<path d="M575.666 1064.23H485.534C482.974 1064.17 480.538 1063.12 478.748 1061.29C476.957 1059.45 475.955 1057 475.955 1054.43C475.955 1051.87 476.957 1049.41 478.748 1047.58C480.538 1045.75 482.974 1044.69 485.534 1044.64H575.665C578.225 1044.69 580.661 1045.75 582.451 1047.58C584.241 1049.41 585.243 1051.87 585.243 1054.43C585.243 1057 584.241 1059.45 582.451 1061.29C580.661 1063.12 578.225 1064.17 575.665 1064.23H575.666Z" fill="#D9FF43"/>
<path d="M417.949 996.199H385.08C383.775 996.229 382.477 995.997 381.262 995.518C380.048 995.039 378.941 994.322 378.008 993.409C377.074 992.496 376.332 991.406 375.826 990.203C375.319 989 375.059 987.707 375.059 986.402C375.059 985.096 375.319 983.804 375.826 982.6C376.332 981.397 377.074 980.307 378.008 979.394C378.941 978.481 380.048 977.764 381.262 977.285C382.477 976.806 383.775 976.575 385.08 976.604H417.949C419.254 976.575 420.552 976.806 421.767 977.285C422.981 977.764 424.088 978.481 425.021 979.394C425.955 980.307 426.697 981.397 427.203 982.6C427.709 983.804 427.97 985.096 427.97 986.402C427.97 987.707 427.709 989 427.203 990.203C426.697 991.406 425.955 992.496 425.021 993.409C424.088 994.322 422.981 995.039 421.767 995.518C420.552 995.997 419.254 996.229 417.949 996.199Z" fill="#D9FF43"/>
<path d="M357.454 1020.16C357.122 1020.16 356.795 1020.1 356.489 1019.97C356.183 1019.84 355.905 1019.66 355.67 1019.42C355.436 1019.19 355.25 1018.91 355.124 1018.61C354.997 1018.3 354.932 1017.97 354.932 1017.64C354.946 1011.67 356.664 1005.83 359.882 1000.81C363.101 995.78 367.686 991.776 373.101 989.265C372.874 988.327 372.76 987.365 372.761 986.4C372.764 983.134 374.064 980.002 376.373 977.693C378.683 975.383 381.814 974.084 385.081 974.08H391.748C392.319 967.245 395.435 960.874 400.48 956.228C405.525 951.581 412.13 948.998 418.989 948.99H433.447C431.171 945.864 429.759 942.193 429.351 938.348C428.944 934.503 429.555 930.618 431.125 927.084C432.694 923.55 435.166 920.491 438.292 918.215C441.418 915.939 445.088 914.526 448.933 914.117C449.152 911.006 450.542 908.094 452.822 905.966C455.102 903.839 458.104 902.654 461.223 902.65H469.338C469.84 897.179 472.366 892.092 476.422 888.387C480.479 884.681 485.773 882.624 491.267 882.617C491.936 882.617 492.577 882.883 493.05 883.356C493.523 883.829 493.789 884.471 493.789 885.14C493.789 885.809 493.523 886.45 493.05 886.923C492.577 887.396 491.936 887.662 491.267 887.662C486.767 887.667 482.453 889.457 479.272 892.638C476.09 895.82 474.301 900.134 474.296 904.633C474.296 904.689 474.296 904.743 474.304 904.798C474.31 904.898 474.315 904.998 474.318 905.098C474.327 905.435 474.269 905.77 474.146 906.084C474.024 906.398 473.84 906.685 473.604 906.926C473.369 907.168 473.088 907.36 472.778 907.491C472.467 907.622 472.134 907.689 471.797 907.689H461.223C459.294 907.691 457.445 908.458 456.081 909.822C454.717 911.186 453.95 913.035 453.948 914.964C453.951 915.351 453.984 915.736 454.048 916.117C454.105 916.477 454.084 916.846 453.985 917.197C453.887 917.548 453.713 917.874 453.476 918.151C453.239 918.429 452.945 918.652 452.613 918.804C452.282 918.957 451.921 919.036 451.557 919.035H451.238C447.687 919.035 444.225 920.149 441.34 922.219C438.455 924.29 436.293 927.214 435.157 930.578C434.022 933.943 433.97 937.579 435.01 940.974C436.05 944.37 438.129 947.354 440.954 949.505C441.373 949.825 441.682 950.269 441.836 950.773C441.99 951.278 441.982 951.818 441.813 952.318C441.644 952.817 441.323 953.252 440.894 953.559C440.465 953.867 439.951 954.032 439.424 954.032H418.988C413.079 954.039 407.414 956.39 403.236 960.568C399.057 964.746 396.707 970.411 396.701 976.32C396.707 976.42 396.709 976.498 396.71 976.576C396.713 976.909 396.65 977.24 396.525 977.549C396.4 977.858 396.214 978.139 395.98 978.376C395.745 978.613 395.466 978.801 395.159 978.929C394.851 979.057 394.521 979.123 394.188 979.123H385.081C383.152 979.126 381.303 979.893 379.939 981.257C378.575 982.62 377.808 984.469 377.806 986.398C377.806 987.5 378.059 988.586 378.546 989.574C378.7 989.891 378.786 990.238 378.799 990.59C378.811 990.943 378.749 991.294 378.617 991.621C378.485 991.949 378.286 992.244 378.033 992.49C377.779 992.735 377.477 992.925 377.146 993.046C372.117 994.905 367.777 998.257 364.708 1002.65C361.639 1007.05 359.988 1012.28 359.976 1017.64C359.976 1017.97 359.911 1018.3 359.784 1018.6C359.658 1018.91 359.472 1019.19 359.238 1019.42C359.004 1019.66 358.725 1019.84 358.419 1019.97C358.113 1020.1 357.785 1020.16 357.454 1020.16Z" fill="#FDC500"/>
<path d="M394.186 979.125C393.521 979.125 392.883 978.862 392.411 978.394C391.938 977.926 391.67 977.29 391.664 976.625C391.658 976.5 391.655 976.411 391.655 976.32C391.663 969.074 394.546 962.127 399.67 957.003C404.794 951.879 411.741 948.996 418.987 948.988H433.445C431.163 945.853 429.748 942.171 429.345 938.315C428.941 934.458 429.562 930.563 431.146 927.023C432.73 923.484 435.219 920.425 438.364 918.155C441.508 915.886 445.196 914.487 449.054 914.099C449.258 913.542 449.651 913.075 450.165 912.778C450.678 912.482 451.28 912.377 451.864 912.48C452.448 912.583 452.977 912.889 453.358 913.344C453.739 913.798 453.948 914.372 453.947 914.965C453.951 915.352 453.984 915.737 454.047 916.118C454.105 916.478 454.084 916.847 453.985 917.198C453.886 917.549 453.712 917.875 453.476 918.152C453.239 918.43 452.944 918.652 452.613 918.805C452.282 918.958 451.921 919.037 451.556 919.036H451.245C447.694 919.036 444.233 920.15 441.348 922.22C438.463 924.291 436.301 927.215 435.165 930.579C434.029 933.944 433.978 937.58 435.018 940.975C436.058 944.371 438.136 947.354 440.961 949.506C441.381 949.826 441.689 950.27 441.843 950.774C441.998 951.279 441.99 951.819 441.821 952.319C441.652 952.818 441.33 953.253 440.902 953.56C440.473 953.868 439.959 954.033 439.431 954.033H418.987C413.078 954.04 407.413 956.39 403.235 960.568C399.056 964.747 396.706 970.412 396.699 976.321C396.705 976.421 396.707 976.499 396.708 976.577C396.712 976.909 396.65 977.237 396.526 977.545C396.402 977.852 396.218 978.132 395.986 978.369C395.754 978.605 395.478 978.794 395.172 978.924C394.867 979.053 394.54 979.121 394.208 979.124L394.186 979.125Z" fill="#F2E71C"/>
<path d="M614.759 923.578H575.666C574.952 923.588 574.243 923.456 573.581 923.189C572.919 922.923 572.316 922.528 571.808 922.026C571.299 921.525 570.896 920.928 570.62 920.269C570.345 919.61 570.203 918.904 570.203 918.19C570.203 917.476 570.345 916.769 570.62 916.111C570.896 915.452 571.299 914.855 571.808 914.353C572.316 913.852 572.919 913.457 573.581 913.19C574.243 912.924 574.952 912.792 575.666 912.801H614.759C616.175 912.821 617.527 913.397 618.522 914.405C619.516 915.414 620.074 916.773 620.074 918.19C620.074 919.606 619.516 920.966 618.522 921.974C617.527 922.983 616.175 923.559 614.759 923.578Z" fill="#0A7E8A"/>
<path d="M595.213 990.309H556.12C554.17 990.309 552.301 989.535 550.922 988.157C549.544 986.778 548.77 984.909 548.77 982.959C548.77 981.01 549.544 979.141 550.922 977.762C552.301 976.384 554.17 975.609 556.12 975.609H595.213C597.162 975.609 599.031 976.384 600.41 977.762C601.788 979.141 602.563 981.01 602.563 982.959C602.563 984.909 601.788 986.778 600.41 988.157C599.031 989.535 597.162 990.309 595.213 990.309Z" fill="#0A7E8A"/>
<path d="M566.789 976.052H549.035C547.085 976.052 545.216 975.277 543.837 973.899C542.459 972.52 541.685 970.651 541.685 968.702C541.685 966.752 542.459 964.883 543.837 963.504C545.216 962.126 547.085 961.352 549.035 961.352H566.789C568.738 961.352 570.607 962.126 571.986 963.504C573.364 964.883 574.139 966.752 574.139 968.702C574.139 970.651 573.364 972.52 571.986 973.899C570.607 975.277 568.738 976.052 566.789 976.052Z" fill="#0A7E8A"/>
<path d="M649.703 1053.7H618.852C616.903 1053.7 615.033 1052.93 613.655 1051.55C612.276 1050.17 611.502 1048.3 611.502 1046.35C611.502 1044.4 612.276 1042.53 613.655 1041.15C615.033 1039.77 616.903 1039 618.852 1039H649.703C651.652 1039 653.522 1039.77 654.9 1041.15C656.279 1042.53 657.053 1044.4 657.053 1046.35C657.053 1048.3 656.279 1050.17 654.9 1051.55C653.522 1052.93 651.652 1053.7 649.703 1053.7Z" fill="#0A7E8A"/>
<path d="M441.128 1055.36H410.277C408.327 1055.36 406.458 1054.59 405.08 1053.21C403.701 1051.83 402.927 1049.96 402.927 1048.01C402.927 1046.06 403.701 1044.19 405.08 1042.81C406.458 1041.43 408.327 1040.66 410.277 1040.66H441.128C443.077 1040.66 444.947 1041.43 446.325 1042.81C447.703 1044.19 448.478 1046.06 448.478 1048.01C448.478 1049.96 447.703 1051.83 446.325 1053.21C444.947 1054.59 443.077 1055.36 441.128 1055.36Z" fill="#0A7E8A"/>
<path d="M579.562 1225.63H507.246C504.686 1225.57 502.25 1224.51 500.46 1222.68C498.669 1220.85 497.667 1218.39 497.667 1215.83C497.667 1213.27 498.669 1210.81 500.46 1208.98C502.25 1207.15 504.686 1206.09 507.246 1206.03H579.562C582.122 1206.09 584.558 1207.15 586.348 1208.98C588.138 1210.81 589.14 1213.27 589.14 1215.83C589.14 1218.39 588.138 1220.85 586.348 1222.68C584.558 1224.51 582.122 1225.57 579.562 1225.63Z" fill="#002682"/>
<path d="M599.982 1236H458.582C457.277 1236.03 455.979 1235.8 454.764 1235.32C453.55 1234.84 452.443 1234.12 451.51 1233.21C450.576 1232.3 449.834 1231.21 449.328 1230C448.821 1228.8 448.561 1227.51 448.561 1226.2C448.561 1224.9 448.821 1223.6 449.328 1222.4C449.834 1221.2 450.576 1220.11 451.51 1219.19C452.443 1218.28 453.55 1217.57 454.764 1217.09C455.979 1216.61 457.277 1216.38 458.582 1216.4H599.982C602.542 1216.46 604.978 1217.52 606.768 1219.35C608.558 1221.18 609.561 1223.64 609.561 1226.2C609.561 1228.76 608.558 1231.22 606.768 1233.05C604.978 1234.88 602.542 1235.94 599.982 1236Z" fill="#002682"/>
<path d="M582.055 1232.15H543.807C542.501 1232.18 541.203 1231.95 539.989 1231.47C538.774 1230.99 537.668 1230.27 536.734 1229.36C535.801 1228.45 535.059 1227.36 534.552 1226.15C534.046 1224.95 533.785 1223.66 533.785 1222.35C533.785 1221.05 534.046 1219.75 534.552 1218.55C535.059 1217.35 535.801 1216.26 536.734 1215.34C537.668 1214.43 538.774 1213.71 539.989 1213.23C541.203 1212.76 542.501 1212.52 543.807 1212.55H582.054C584.614 1212.61 587.049 1213.67 588.84 1215.5C590.63 1217.33 591.632 1219.79 591.632 1222.35C591.632 1224.91 590.63 1227.37 588.84 1229.2C587.049 1231.03 584.614 1232.09 582.054 1232.15H582.055Z" fill="#0F4987"/>
<path d="M553.247 1224.41H480.931C479.626 1224.44 478.328 1224.21 477.114 1223.73C475.899 1223.25 474.793 1222.54 473.859 1221.62C472.926 1220.71 472.184 1219.62 471.677 1218.42C471.171 1217.21 470.91 1215.92 470.91 1214.62C470.91 1213.31 471.171 1212.02 471.677 1210.82C472.184 1209.61 472.926 1208.52 473.859 1207.61C474.793 1206.7 475.899 1205.98 477.114 1205.5C478.328 1205.02 479.626 1204.79 480.931 1204.82H553.247C554.553 1204.79 555.851 1205.02 557.065 1205.5C558.28 1205.98 559.386 1206.7 560.32 1207.61C561.253 1208.52 561.995 1209.61 562.502 1210.82C563.008 1212.02 563.269 1213.31 563.269 1214.62C563.269 1215.92 563.008 1217.21 562.502 1218.42C561.995 1219.62 561.253 1220.71 560.32 1221.62C559.386 1222.54 558.28 1223.25 557.065 1223.73C555.851 1224.21 554.553 1224.44 553.247 1224.41Z" fill="#0F4987"/>
<path d="M519.136 1218.34H495.362C493.348 1218.34 491.416 1217.54 489.992 1216.11C488.569 1214.69 487.769 1212.76 487.769 1210.75C487.769 1208.73 488.569 1206.8 489.992 1205.38C491.416 1203.95 493.348 1203.15 495.362 1203.15H519.136C521.149 1203.15 523.081 1203.95 524.505 1205.38C525.929 1206.8 526.729 1208.73 526.729 1210.75C526.729 1212.76 525.929 1214.69 524.505 1216.11C523.081 1217.54 521.149 1218.34 519.136 1218.34Z" fill="#0D7491"/>
<g filter="url(#filter3_d)">
<rect x="173" y="875" width="50" height="50" rx="25" fill="white"/>
</g>
<g filter="url(#filter4_d)">
<path d="M810.5 1317.5C810.5 1298.45 825.946 1283 845 1283C864.054 1283 879.5 1298.45 879.5 1317.5C879.5 1336.55 864.054 1352 845 1352C825.946 1352 810.5 1336.55 810.5 1317.5Z" fill="white"/>
</g>
<g filter="url(#filter5_d)">
<rect x="253" y="826" width="36" height="36" rx="18" fill="white"/>
</g>
</g>
</g>
<path d="M565.794 512.555L584.594 486H547L565.794 512.555Z" fill="#9FFCC4"/>
<defs>
<filter id="filter0_d" x="92.3203" y="316.34" width="507.207" height="209.06" filterUnits="userSpaceOnUse" color-interpolation-filters="sRGB">
<feFlood flood-opacity="0" result="BackgroundImageFix"/>
<feColorMatrix in="SourceAlpha" type="matrix" values="0 0 0 0 0 0 0 0 0 0 0 0 0 0 0 0 0 0 127 0"/>
<feOffset dy="4"/>
<feGaussianBlur stdDeviation="2"/>
<feColorMatrix type="matrix" values="0 0 0 0 0 0 0 0 0 0 0 0 0 0 0 0 0 0 0.25 0"/>
<feBlend mode="normal" in2="BackgroundImageFix" result="effect1_dropShadow"/>
<feBlend mode="normal" in="SourceGraphic" in2="effect1_dropShadow" result="shape"/>
</filter>
<filter id="filter1_d" x="73" y="672" width="934" height="828" filterUnits="userSpaceOnUse" color-interpolation-filters="sRGB">
<feFlood flood-opacity="0" result="BackgroundImageFix"/>
<feColorMatrix in="SourceAlpha" type="matrix" values="0 0 0 0 0 0 0 0 0 0 0 0 0 0 0 0 0 0 127 0"/>
<feOffset dy="4"/>
<feGaussianBlur stdDeviation="2"/>
<feColorMatrix type="matrix" values="0 0 0 0 0 0 0 0 0 0 0 0 0 0 0 0 0 0 0.25 0"/>
<feBlend mode="normal" in2="BackgroundImageFix" result="effect1_dropShadow"/>
<feBlend mode="normal" in="SourceGraphic" in2="effect1_dropShadow" result="shape"/>
</filter>
<filter id="filter2_d" x="213.5" y="742.5" width="652" height="644" filterUnits="userSpaceOnUse" color-interpolation-filters="sRGB">
<feFlood flood-opacity="0" result="BackgroundImageFix"/>
<feColorMatrix in="SourceAlpha" type="matrix" values="0 0 0 0 0 0 0 0 0 0 0 0 0 0 0 0 0 0 127 0"/>
<feOffset dx="10" dy="-9"/>
<feGaussianBlur stdDeviation="49.5"/>
<feColorMatrix type="matrix" values="0 0 0 0 1 0 0 0 0 1 0 0 0 0 1 0 0 0 1 0"/>
<feBlend mode="normal" in2="BackgroundImageFix" result="effect1_dropShadow"/>
<feBlend mode="normal" in="SourceGraphic" in2="effect1_dropShadow" result="shape"/>
</filter>
<filter id="filter3_d" x="114" y="820" width="168" height="168" filterUnits="userSpaceOnUse" color-interpolation-filters="sRGB">
<feFlood flood-opacity="0" result="BackgroundImageFix"/>
<feColorMatrix in="SourceAlpha" type="matrix" values="0 0 0 0 0 0 0 0 0 0 0 0 0 0 0 0 0 0 127 0"/>
<feMorphology radius="4" operator="dilate" in="SourceAlpha" result="effect1_dropShadow"/>
<feOffset dy="4"/>
<feGaussianBlur stdDeviation="27.5"/>
<feColorMatrix type="matrix" values="0 0 0 0 1 0 0 0 0 1 0 0 0 0 1 0 0 0 1 0"/>
<feBlend mode="normal" in2="BackgroundImageFix" result="effect1_dropShadow"/>
<feBlend mode="normal" in="SourceGraphic" in2="effect1_dropShadow" result="shape"/>
</filter>
<filter id="filter4_d" x="755.5" y="1232" width="179" height="179" filterUnits="userSpaceOnUse" color-interpolation-filters="sRGB">
<feFlood flood-opacity="0" result="BackgroundImageFix"/>
<feColorMatrix in="SourceAlpha" type="matrix" values="0 0 0 0 0 0 0 0 0 0 0 0 0 0 0 0 0 0 127 0"/>
<feOffset dy="4"/>
<feGaussianBlur stdDeviation="27.5"/>
<feColorMatrix type="matrix" values="0 0 0 0 1 0 0 0 0 1 0 0 0 0 1 0 0 0 1 0"/>
<feBlend mode="normal" in2="BackgroundImageFix" result="effect1_dropShadow"/>
<feBlend mode="normal" in="SourceGraphic" in2="effect1_dropShadow" result="shape"/>
</filter>
<filter id="filter5_d" x="194" y="771" width="154" height="154" filterUnits="userSpaceOnUse" color-interpolation-filters="sRGB">
<feFlood flood-opacity="0" result="BackgroundImageFix"/>
<feColorMatrix in="SourceAlpha" type="matrix" values="0 0 0 0 0 0 0 0 0 0 0 0 0 0 0 0 0 0 127 0"/>
<feMorphology radius="4" operator="dilate" in="SourceAlpha" result="effect1_dropShadow"/>
<feOffset dy="4"/>
<feGaussianBlur stdDeviation="27.5"/>
<feColorMatrix type="matrix" values="0 0 0 0 1 0 0 0 0 1 0 0 0 0 1 0 0 0 1 0"/>
<feBlend mode="normal" in2="BackgroundImageFix" result="effect1_dropShadow"/>
<feBlend mode="normal" in="SourceGraphic" in2="effect1_dropShadow" result="shape"/>
</filter>
<linearGradient id="paint0_linear" x1="218.392" y1="119" x2="218.392" y2="222.284" gradientUnits="userSpaceOnUse">
<stop stop-color="white"/>
<stop offset="1" stop-color="#BCFFD5"/>
</linearGradient>
<clipPath id="clip0">
<rect width="282.75" height="103.282" fill="white" transform="translate(77 119)"/>
</clipPath>
<clipPath id="clip1">
<rect x="77" y="672" width="926" height="820" rx="45" fill="white"/>
</clipPath>
</defs>
</svg>
