<svg width="934" height="828" viewBox="0 0 934 828" fill="none" xmlns="http://www.w3.org/2000/svg">
<g filter="url(#filter0_d)">
<g clip-path="url(#clip0)">
<path d="M506.149 1732.48C1084.67 1732.48 1553.65 1263.49 1553.65 684.977C1553.65 106.458 1084.67 -362.523 506.149 -362.523C-72.3688 -362.523 -541.351 106.458 -541.351 684.977C-541.351 1263.49 -72.3688 1732.48 506.149 1732.48Z" fill="#FD5570"/>
<path d="M442.489 407.337C450.628 407.337 457.226 400.739 457.226 392.6C457.226 384.461 450.628 377.863 442.489 377.863C434.35 377.863 427.752 384.461 427.752 392.6C427.752 400.739 434.35 407.337 442.489 407.337Z" fill="#FFC91D"/>
<path d="M442.49 391.82C455.023 391.82 465.183 381.66 465.183 369.127C465.183 356.594 455.023 346.434 442.49 346.434C429.957 346.434 419.797 356.594 419.797 369.127C419.797 381.66 429.957 391.82 442.49 391.82Z" fill="#FFC91D"/>
<path d="M442.488 367.574C457.829 367.574 470.265 355.137 470.265 339.797C470.265 324.456 457.829 312.02 442.488 312.02C427.147 312.02 414.711 324.456 414.711 339.797C414.711 355.137 427.147 367.574 442.488 367.574Z" fill="#FFC91D"/>
<path d="M746.32 369.515C767.442 369.515 784.564 352.393 784.564 331.271C784.564 310.15 767.442 293.027 746.32 293.027C725.199 293.027 708.076 310.15 708.076 331.271C708.076 352.393 725.199 369.515 746.32 369.515Z" fill="#FFE649"/>
<path d="M789.592 369.515C810.713 369.515 827.836 352.393 827.836 331.271C827.836 310.15 810.713 293.027 789.592 293.027C768.47 293.027 751.348 310.15 751.348 331.271C751.348 352.393 768.47 369.515 789.592 369.515Z" fill="#FFE649"/>
<path d="M836.973 369.515C858.094 369.515 875.217 352.393 875.217 331.271C875.217 310.15 858.094 293.027 836.973 293.027C815.851 293.027 798.729 310.15 798.729 331.271C798.729 352.393 815.851 369.515 836.973 369.515Z" fill="#FFE649"/>
<path d="M670.734 250.608C688.022 250.608 702.038 236.593 702.038 219.304C702.038 202.015 688.022 188 670.734 188C653.445 188 639.43 202.015 639.43 219.304C639.43 236.593 653.445 250.608 670.734 250.608Z" fill="#FFE649"/>
<path d="M706.154 250.608C723.442 250.608 737.458 236.593 737.458 219.304C737.458 202.015 723.442 188 706.154 188C688.865 188 674.85 202.015 674.85 219.304C674.85 236.593 688.865 250.608 706.154 250.608Z" fill="#FFE649"/>
<path d="M208.011 499.419C224.724 493.004 233.072 474.254 226.656 457.541C220.241 440.827 201.491 432.48 184.778 438.895C168.064 445.311 159.717 464.06 166.132 480.774C172.548 497.487 191.297 505.835 208.011 499.419Z" fill="#FFC91D"/>
<path d="M208.279 461.325C234.176 451.384 247.111 422.332 237.17 396.434C227.229 370.537 198.177 357.602 172.28 367.543C146.382 377.484 133.447 406.537 143.388 432.434C153.329 458.331 182.382 471.266 208.279 461.325Z" fill="#FFC91D"/>
<path d="M205.055 403.683C234.347 392.439 248.977 359.579 237.733 330.288C226.489 300.996 193.629 286.366 164.337 297.61C135.046 308.854 120.416 341.714 131.66 371.005C142.904 400.297 175.764 414.927 205.055 403.683Z" fill="#FFC91D"/>
<path d="M197.8 339.817C241.876 322.898 263.891 273.452 246.972 229.377C230.053 185.301 180.607 163.286 136.531 180.205C92.4551 197.124 70.4402 246.57 87.3593 290.646C104.278 334.722 153.725 356.737 197.8 339.817Z" fill="#FFC91D"/>
<path d="M711.066 531.927L722.657 531.449V520.406L711.066 520.765V531.927Z" fill="#00A5FF"/>
<path d="M680.129 487.284L718.98 487.277C721.245 487.309 723.479 487.807 725.543 488.739C727.607 489.671 729.458 491.017 730.98 492.694L760.498 523.866L717.742 525.379L680.129 487.284Z" fill="#FFE500"/>
<path d="M716.669 754.171L761.969 742.99V528.539C761.969 524.908 759.628 522.044 756.727 522.139L716.668 523.485L716.669 754.171Z" fill="#00D6FF"/>
<path d="M716.549 523.695V754.201L674.943 764.47L674.756 492.006C674.756 487.806 678.981 485.562 681.68 488.306L716.549 523.695Z" fill="#00A5FF"/>
<path d="M750.348 578.754L756.901 578.181V533.281L750.348 533.572V578.754Z" fill="#FFE500"/>
<path d="M737.309 579.896L744.026 579.308V533.852L737.309 534.151V579.896Z" fill="#FFE500"/>
<path d="M723.939 581.066L730.826 580.465V534.438L723.939 534.743V581.066Z" fill="#FFE500"/>
<path d="M750.348 634.147L756.901 633.228V588.328L750.348 588.966V634.147Z" fill="#FFE500"/>
<path d="M737.309 635.976L744.026 635.034V589.578L737.309 590.231V635.976Z" fill="#FFE500"/>
<path d="M723.939 637.85L730.826 636.884V590.859L723.939 591.528V637.85Z" fill="#FFE500"/>
<path d="M750.348 689.54L756.901 688.275V643.375L750.348 644.358V689.54Z" fill="#FFE500"/>
<path d="M737.309 692.059L744.026 690.759V645.305L737.309 646.313V692.059Z" fill="#FFE500"/>
<path d="M723.939 694.641L730.826 693.311V647.285L723.939 648.321V694.641Z" fill="#FFE500"/>
<path d="M638.982 566.963L652.167 566.063V554.289L638.982 555.054V566.963Z" fill="#00A5FF"/>
<path d="M603.705 520.283L647.992 519.083C650.511 519.025 653.016 519.473 655.358 520.4C657.701 521.328 659.833 522.716 661.629 524.483L695.087 556.724L646.587 559.754L603.705 520.283Z" fill="#FFE500"/>
<path d="M645.359 772.591L696.747 759.907V561.641C696.747 557.78 694.1 554.81 690.815 555.009L645.359 557.768V772.591Z" fill="#00D6FF"/>
<path d="M645.222 557.999V772.629L597.772 784.339L597.555 525.503C597.555 521.016 602.387 518.482 605.471 521.326L645.222 557.999Z" fill="#00A5FF"/>
<path d="M683.592 615.477L691.013 614.628V566.859L683.592 567.389V615.477Z" fill="#FFE500"/>
<path d="M668.807 617.17L676.425 616.298V567.898L668.807 568.442V617.17Z" fill="#FFE500"/>
<path d="M653.629 618.91L661.452 618.01V568.969L653.629 569.526V618.91Z" fill="#FFE500"/>
<path d="M683.592 674.436L691.013 673.194V625.422L683.592 626.344V674.436Z" fill="#FFE500"/>
<path d="M668.807 676.908L676.425 675.634V627.234L668.807 628.18V676.908Z" fill="#FFE500"/>
<path d="M653.629 679.452L661.45 678.14V629.098L653.627 630.07L653.629 679.452Z" fill="#FFE500"/>
<path d="M683.592 733.392L691.013 731.759V683.988L683.592 685.302V733.392Z" fill="#FFE500"/>
<path d="M668.807 736.643L676.425 734.966V686.566L668.807 687.915V736.643Z" fill="#FFE500"/>
<path d="M653.629 739.991L661.452 738.269V689.223L653.629 690.608V739.991Z" fill="#FFE500"/>
<path d="M564.416 599.95L579.484 598.656V586.074L564.416 587.213V599.95Z" fill="#00A5FF"/>
<path d="M590.282 554.011L628.37 587.628L573.107 592.055L523.98 550.817L574.714 548.541C580.418 548.267 586.003 550.23 590.281 554.012" fill="#FFE500"/>
<path d="M571.702 797.9L630.254 783.448V592.833C630.254 588.719 627.246 585.617 623.513 585.91L571.701 589.966L571.702 797.9Z" fill="#00D6FF"/>
<path d="M571.549 590.211V797.941L517.162 811.366L516.91 556.553C516.91 551.743 522.463 548.919 526.003 551.897L571.549 590.211Z" fill="#00A5FF"/>
<path d="M615.299 650.577L623.738 649.462V598.531L615.299 599.282V650.577Z" fill="#FFE500"/>
<path d="M598.463 652.8L607.141 651.654V600.008L598.463 600.779V652.8Z" fill="#FFE500"/>
<path d="M581.146 655.089L590.074 653.905V601.527L581.146 602.327V655.089Z" fill="#FFE500"/>
<path d="M615.299 713.465L623.738 711.904V660.973L615.299 662.173V713.465Z" fill="#FFE500"/>
<path d="M598.463 716.576L607.141 714.976V663.324L598.463 664.555V716.576Z" fill="#FFE500"/>
<path d="M581.146 719.779L590.074 718.128V665.746L581.146 667.012V719.779Z" fill="#FFE500"/>
<path d="M615.299 776.348L623.738 774.342V723.41L615.299 725.053V776.348Z" fill="#FFE500"/>
<path d="M598.463 780.352L607.141 778.289V726.641L598.463 728.33V780.352Z" fill="#FFE500"/>
<path d="M581.146 784.47L590.074 782.347V729.965L581.146 731.703V784.47Z" fill="#FFE500"/>
<path d="M471.172 560.03L488.708 559.306V545.742L471.172 546.288V560.03Z" fill="#00A5FF"/>
<path d="M423.943 505.047L483.163 505.039C489.795 505.017 496.214 507.374 501.255 511.682L545.373 549.63L481.292 551.898L423.943 505.047Z" fill="#FFE500"/>
<path d="M479.654 833.342L547.547 816.582V555.311C547.57 554.315 547.396 553.325 547.035 552.397C546.675 551.469 546.135 550.62 545.447 549.901C544.758 549.181 543.935 548.605 543.024 548.203C542.112 547.802 541.131 547.584 540.135 547.562C540.01 547.563 539.885 547.562 539.759 547.562L479.659 549.584L479.654 833.342Z" fill="#00D6FF"/>
<path d="M479.479 549.84V833.387L415.957 849.065L415.664 510.911C415.664 505.702 422.17 502.911 426.317 506.311L479.479 549.84Z" fill="#00A5FF"/>
<path d="M530.254 616.765L540.016 615.911V561.141L530.254 561.573V616.765Z" fill="#FFE500"/>
<path d="M510.75 618.468L520.81 617.588V561.996L510.75 562.442V618.468Z" fill="#FFE500"/>
<path d="M490.641 620.227L501.013 619.32V562.875L490.641 563.335V620.227Z" fill="#FFE500"/>
<path d="M530.254 684.418L540.016 683.049V628.285L530.254 629.233V684.418Z" fill="#FFE500"/>
<path d="M510.75 687.151L520.81 685.74V630.148L510.75 631.127V687.151Z" fill="#FFE500"/>
<path d="M490.641 689.974L501.013 688.518V632.074L490.641 633.082V689.974Z" fill="#FFE500"/>
<path d="M530.254 752.072L540.016 750.187V695.422L530.254 696.886V752.072Z" fill="#FFE500"/>
<path d="M510.75 755.84L520.81 753.897V698.305L510.75 699.814V755.84Z" fill="#FFE500"/>
<path d="M490.641 759.72L501.013 757.72V701.273L490.641 702.829V759.72Z" fill="#FFE500"/>
<path d="M372.973 610.947L393.545 609.547V594.859L372.973 596.052V610.947Z" fill="#00A5FF"/>
<path d="M317.344 552.873L387.044 550.973C394.656 550.688 402.137 553.021 408.237 557.584L459.714 597.109L384.849 601.782L317.344 552.873Z" fill="#FFE500"/>
<path d="M382.928 867.693L462.243 848.118V603.16C462.215 600.976 461.32 598.893 459.756 597.369C458.192 595.844 456.087 595.004 453.903 595.032C453.661 595.032 453.418 595.049 453.177 595.074L382.928 599.334V867.693Z" fill="#00D6FF"/>
<path d="M382.723 599.616V867.74L307.901 886.204L307.555 559.51C307.555 553.847 315.247 550.61 320.145 554.166L382.723 599.616Z" fill="#00A5FF"/>
<path d="M442.107 670.115L453.479 668.815V609.715L442.105 610.527L442.107 670.115Z" fill="#FFE500"/>
<path d="M419.34 672.72L431.089 671.375V611.316L419.34 612.155V672.72Z" fill="#FFE500"/>
<path d="M395.812 675.415L407.956 674.025V612.969L395.811 613.836L395.812 675.415Z" fill="#FFE500"/>
<path d="M442.105 743.168L453.479 741.268V682.168L442.105 683.581V743.168Z" fill="#FFE500"/>
<path d="M419.338 746.973L431.088 745.007V684.949L419.338 686.408V746.973Z" fill="#FFE500"/>
<path d="M395.811 750.907L407.955 748.875V687.82L395.811 689.328V750.907Z" fill="#FFE500"/>
<path d="M442.105 816.209L453.479 813.709V754.609L442.105 756.626V816.209Z" fill="#FFE500"/>
<path d="M419.338 821.223L431.088 818.637V758.578L419.338 760.658V821.223Z" fill="#FFE500"/>
<path d="M395.811 826.401L407.955 823.728V762.672L395.811 764.822V826.401Z" fill="#FFE500"/>
<path d="M249.838 665.672L274.18 663.58V647.617L249.838 649.458V665.672Z" fill="#00A5FF"/>
<path d="M183.711 603.777L266.496 600.065C275.342 599.537 284.122 601.882 291.526 606.751L352.062 648.319L263.9 655.376L183.711 603.777Z" fill="#FFE500"/>
<path d="M261.629 917.065L355.029 894.012V654.802C355.029 649.637 350.288 645.822 344.398 646.284L261.631 652.765L261.629 917.065Z" fill="#00D6FF"/>
<path d="M261.381 653.077V917.125L172.442 906.914L172.029 611.265C172.022 605.076 181.208 601.354 187.051 605.125L261.381 653.077Z" fill="#00A5FF"/>
<path d="M331.396 727.909L344.748 726.146V662.137L331.396 663.325V727.909Z" fill="#FFE500"/>
<path d="M304.615 731.448L318.447 729.62V664.48L304.615 665.712V731.448Z" fill="#FFE500"/>
<path d="M276.857 735.114L291.194 733.22V666.906L276.857 668.182V735.114Z" fill="#FFE500"/>
<path d="M331.396 807.084L344.748 804.615V740.609L331.396 742.503V807.084Z" fill="#FFE500"/>
<path d="M304.615 812.04L318.447 809.482V744.34L304.615 746.301V812.04Z" fill="#FFE500"/>
<path d="M276.857 817.169L291.194 814.518V748.203L276.857 750.236V817.169Z" fill="#FFE500"/>
<path d="M331.396 886.258L344.748 883.084V819.078L331.396 821.678V886.258Z" fill="#FFE500"/>
<path d="M223.952 570.494L210.352 558.543V610.985L224.972 620.098" fill="#00A5FF"/>
<path d="M210.35 558.54L227.443 558.128C230.148 558.064 232.796 558.918 234.954 560.551L247.138 571.328H224.975L210.35 558.54Z" fill="#FFE500"/>
<path d="M224.976 620.1L249.359 617.883L248.087 573.462C248.087 573.072 248.011 572.687 247.861 572.327C247.712 571.967 247.494 571.64 247.218 571.364C246.943 571.089 246.616 570.871 246.256 570.722C245.896 570.573 245.51 570.496 245.12 570.496H223.947L224.976 620.1Z" fill="#00D6FF"/>
<path d="M455.505 478.211L443.025 467.523L442.205 512.656L454.417 522.567" fill="#00A5FF"/>
<path d="M443.029 467.523L458.723 467.152C461.2 467.091 463.627 467.853 465.623 469.32L476.808 478.956H456.45L443.029 467.523Z" fill="#FFE500"/>
<path d="M454.416 522.568L476.804 520.586L477.671 480.862C477.667 480.509 477.593 480.161 477.453 479.837C477.314 479.513 477.113 479.219 476.86 478.973C476.607 478.727 476.308 478.533 475.981 478.402C475.653 478.271 475.303 478.206 474.95 478.211H455.507L454.416 522.568Z" fill="#00D6FF"/>
<g filter="url(#filter1_d)">
<path d="M302.737 97.8378V93.6849H281.222V88.1624H302.428V84.0536H276.053V97.8378H286.435V101.328H271.325V105.481H306.89V101.328H291.604V97.8378H302.737ZM302.782 122.004V117.895H281.001V112.417H302.384V108.264H275.876V122.004H302.782ZM345.116 117.586V113.477H329.83V105.834H340.875V85.7325H335.706V91.9177H318.962V85.8208H313.837V105.834H324.661V113.477H309.551V117.586H345.116ZM335.706 101.726H318.962V95.8939H335.706V101.726ZM380.338 122.49V83.1258H375.169V122.49H380.338ZM368.233 87.2346H349.854V91.52H362.666C361.959 99.3399 356.083 107.557 347.468 111.489L350.649 115.377C362.666 108.839 367.924 99.119 368.233 87.2346ZM421.568 104.907V101.107H386.004V104.907H421.568ZM417.946 122.048V118.337H395.679V116.305H417.018V107.116H390.333V110.827H411.893V112.903H390.51V122.048H417.946ZM417.636 99.0306V95.3637H395.856V93.3314H416.797V84.3629H390.598V88.0298H411.584V90.1063H390.687V99.0306H417.636ZM459.251 102.167C454.656 100.665 450.15 95.7613 450.15 89.7528V85.379H444.76V90.0179C444.76 95.8939 441.049 101.019 435.305 103.139L438.354 107.248C442.065 106.011 446.306 101.902 447.499 97.882C449.222 101.549 453.331 105.083 456.335 106.188C457.263 104.862 458.279 103.537 459.251 102.167ZM468.396 111.666V83.1258H463.227V92.1827H456.468V96.3357H463.227V111.666H468.396ZM469.236 121.43V117.321H447.587V109.059H442.463V121.43H469.236ZM507.55 106.674V83.1258H502.602V92.6687H499.244V83.8327H494.384V106.276H499.244V96.8216H502.602V106.674H507.55ZM480.512 101.24V97.4843H490.364V93.464H480.512V90.0621H490.762V85.9534H475.387V105.304H478.921C483.87 105.304 489.569 104.951 492.396 104.244L491.999 100.312C489.48 100.93 483.428 101.328 480.512 101.24ZM479.982 108.529V112.638H502.381V122.534H507.55V108.529H479.982ZM545.776 122.49V83.1258H540.872V99.0306H537.603V83.8327H532.787V120.679H537.603V103.184H540.872V122.49H545.776ZM530.313 106.276C530.313 101.328 526.823 98.1029 521.698 98.1029C516.661 98.1029 513.083 101.284 513.083 106.276C513.083 110.959 516.617 114.449 521.698 114.449C526.823 114.449 530.313 111.224 530.313 106.276ZM512.243 96.6449H531.02V92.5362H512.243V96.6449ZM525.674 106.276C525.674 108.662 523.995 110.385 521.698 110.385C519.445 110.385 517.766 108.75 517.766 106.276C517.766 103.846 519.445 102.167 521.698 102.167C523.995 102.167 525.674 103.846 525.674 106.276ZM516.529 90.283H527.132V86.1743H516.529V90.283ZM554.357 101.77C559.747 101.063 566.198 97.7052 568.274 93.6849C570.439 97.4402 577.198 101.019 582.323 101.593C583.03 100.268 583.781 98.9423 584.488 97.5727C578.612 96.9542 572.029 93.5965 571.102 88.9134H582.853V84.8047H553.695V88.9134H565.447C564.563 93.5965 558.024 97.1309 552.104 97.7494L554.357 101.77ZM570.792 122.446V108.75H586.079V104.641H550.514V108.75H565.579V122.446H570.792ZM622.228 122.49V83.1258H617.324V122.49H622.228ZM614.364 120.679V83.8769H609.548V96.6891H604.247V100.886H609.548V120.679H614.364ZM608.621 109.236C603.849 106.365 600.978 100.4 600.978 92.7571V86.9253H596.029V92.8013C596.029 101.195 592.76 107.116 587.768 110.341L590.816 113.875C594.483 111.666 597.443 107.602 598.548 103.493C599.564 107.381 603.098 111.313 605.705 112.903L608.621 109.236ZM659.129 95.8939C659.129 89.8412 653.43 85.4232 644.77 85.4232C636.155 85.4232 630.456 89.8412 630.456 95.8939C630.456 101.902 636.155 106.232 644.77 106.232C653.43 106.232 659.129 101.902 659.129 95.8939ZM662.531 117.586V113.433H654.49V106.895L649.321 107.116V113.433H640.087V107.116L634.918 106.895V113.433H626.966V117.586H662.531ZM653.827 95.8939C653.827 99.4283 650.204 101.991 644.77 101.991C639.292 101.991 635.758 99.4283 635.758 95.8939C635.758 92.3153 639.292 89.7528 644.77 89.7528C650.249 89.7528 653.827 92.3153 653.827 95.8939Z" fill="#9FFCC4"/>
</g>
<path d="M376.391 268.651V232.6H366.76L360.663 233.484V241.745L366.76 240.862V270.595L376.391 268.651Z" fill="black"/>
<path d="M466.794 181.555L485.594 155H448L466.794 181.555Z" fill="#9FFCC4"/>
</g>
</g>
<defs>
<filter id="filter0_d" x="0" y="0" width="934" height="828" filterUnits="userSpaceOnUse" color-interpolation-filters="sRGB">
<feFlood flood-opacity="0" result="BackgroundImageFix"/>
<feColorMatrix in="SourceAlpha" type="matrix" values="0 0 0 0 0 0 0 0 0 0 0 0 0 0 0 0 0 0 127 0"/>
<feOffset dy="4"/>
<feGaussianBlur stdDeviation="2"/>
<feColorMatrix type="matrix" values="0 0 0 0 0 0 0 0 0 0 0 0 0 0 0 0 0 0 0.25 0"/>
<feBlend mode="normal" in2="BackgroundImageFix" result="effect1_dropShadow"/>
<feBlend mode="normal" in="SourceGraphic" in2="effect1_dropShadow" result="shape"/>
</filter>
<filter id="filter1_d" x="267.326" y="83.125" width="399.205" height="47.4086" filterUnits="userSpaceOnUse" color-interpolation-filters="sRGB">
<feFlood flood-opacity="0" result="BackgroundImageFix"/>
<feColorMatrix in="SourceAlpha" type="matrix" values="0 0 0 0 0 0 0 0 0 0 0 0 0 0 0 0 0 0 127 0"/>
<feOffset dy="4"/>
<feGaussianBlur stdDeviation="2"/>
<feColorMatrix type="matrix" values="0 0 0 0 0 0 0 0 0 0 0 0 0 0 0 0 0 0 0.25 0"/>
<feBlend mode="normal" in2="BackgroundImageFix" result="effect1_dropShadow"/>
<feBlend mode="normal" in="SourceGraphic" in2="effect1_dropShadow" result="shape"/>
</filter>
<clipPath id="clip0">
<rect x="4" width="926" height="820" rx="45" fill="white"/>
</clipPath>
</defs>
</svg>
