<svg width="360" height="149" viewBox="0 0 360 149" fill="none" xmlns="http://www.w3.org/2000/svg">
<g filter="url(#filter0_d)">
<path d="M286 20H74C40.3106 20 13 47.3106 13 81V81.612C13 115.301 40.3106 142.612 74 142.612H286C319.689 142.612 347 115.301 347 81.612V81C347 47.3106 319.689 20 286 20Z" fill="url(#paint0_linear)"/>
</g>
<path d="M169.479 73.3314C164.443 73.1547 158.743 71.6968 157.02 68.2065H167.712V64.2745H139.834V68.2065H150.526C148.98 71.6968 143.943 73.1989 138.067 73.4198L140.144 77.2634C146.108 76.8658 151.542 74.8335 153.707 71.2991C156.093 74.7894 161.969 76.8216 167.314 77.2634L169.479 73.3314ZM165.238 98.0722C165.238 95.2447 161.615 93.2566 153.663 93.2566C145.578 93.2566 141.999 95.2447 141.999 98.0722C141.999 100.9 145.578 102.888 153.663 102.888C161.615 102.888 165.238 100.9 165.238 98.0722ZM171.511 82.7418V78.7214H156.225V74.9219H151.056V78.7214H135.946V82.7418H171.511ZM168.551 92.5497V88.8828H138.774V92.5497H168.551ZM160.025 87.6457V83.9788H147.301V87.6457H160.025ZM159.936 98.028C159.936 99.2651 157.551 99.486 153.663 99.486C149.686 99.486 147.301 99.2651 147.301 98.028C147.301 96.9235 149.686 96.6143 153.663 96.6143C157.551 96.6143 159.936 96.9235 159.936 98.028ZM204.966 63.1258H199.709V102.49H204.966V82.5209H210.798V78.2354H204.966V63.1258ZM174.482 79.9142C174.482 88.1759 178.281 93.9193 184.687 93.9193C191.138 93.9193 194.893 88.1317 194.893 79.9142C194.893 71.6084 191.138 65.8208 184.687 65.8208C178.281 65.8208 174.482 71.6084 174.482 79.9142ZM189.945 79.9142C189.945 86.0994 187.736 89.7664 184.687 89.7664C181.727 89.7664 179.518 86.0994 179.518 79.9142C179.518 73.6849 181.727 69.9737 184.687 69.9737C187.736 69.9737 189.945 73.6849 189.945 79.9142ZM215.049 88.3968H219.467L220.086 65.7325H214.343L215.049 88.3968ZM214.608 97.8071H219.909V92.6381H214.608V97.8071Z" fill="#1F1A57"/>
<defs>
<filter id="filter0_d" x="0" y="0" width="360" height="148.612" filterUnits="userSpaceOnUse" color-interpolation-filters="sRGB">
<feFlood flood-opacity="0" result="BackgroundImageFix"/>
<feColorMatrix in="SourceAlpha" type="matrix" values="0 0 0 0 0 0 0 0 0 0 0 0 0 0 0 0 0 0 127 0"/>
<feOffset dy="-7"/>
<feGaussianBlur stdDeviation="6.5"/>
<feColorMatrix type="matrix" values="0 0 0 0 1 0 0 0 0 1 0 0 0 0 1 0 0 0 0.365 0"/>
<feBlend mode="normal" in2="BackgroundImageFix" result="effect1_dropShadow"/>
<feBlend mode="normal" in="SourceGraphic" in2="effect1_dropShadow" result="shape"/>
</filter>
<linearGradient id="paint0_linear" x1="13" y1="37.0431" x2="13" y2="203.428" gradientUnits="userSpaceOnUse">
<stop stop-color="white"/>
<stop offset="1" stop-color="#BCFFD5"/>
</linearGradient>
</defs>
</svg>
